<svg width="36" height="36" viewBox="0 0 36 36" fill="none" xmlns="http://www.w3.org/2000/svg">
<path d="M18 0C8.05982 0 0 8.05982 0 18C0 27.9402 8.05982 36 18 36C27.9402 36 36 27.9402 36 18C36 8.05982 27.9402 0 18 0ZM24.7098 25.4571C23.0786 26.9598 20.8527 27.8437 18.1969 27.8437C14.3518 27.8437 11.025 25.6379 9.4058 22.4237C8.73884 21.0937 8.35714 19.5911 8.35714 18C8.35714 16.4089 8.73884 14.9062 9.4058 13.5763C11.025 10.358 14.3518 8.15223 18.1969 8.15223C20.8487 8.15223 23.0746 9.12857 24.7821 10.7156L21.9616 13.5402C20.9411 12.5638 19.6433 12.0696 18.2009 12.0696C15.6375 12.0696 13.4679 13.8013 12.6924 16.1277C12.4955 16.7183 12.383 17.3491 12.383 18C12.383 18.6509 12.4955 19.2817 12.6924 19.8723C13.4679 22.1987 15.6375 23.9304 18.1969 23.9304C19.5228 23.9304 20.6478 23.5808 21.5277 22.9902C22.5723 22.2911 23.2634 21.2504 23.4924 20.017H18.1969V16.208H27.4661C27.5826 16.8549 27.6429 17.5259 27.6429 18.221C27.6429 21.2223 26.5701 23.7415 24.7098 25.4571V25.4571Z" fill="white"/>
</svg>
