<svg width="26" height="26" viewBox="0 0 26 26" fill="none" xmlns="http://www.w3.org/2000/svg">
<path d="M23.2765 19.6512H21.1947C21.0526 19.6512 20.9193 19.7147 20.8305 19.8265C20.6232 20.0835 20.4011 20.3314 20.1671 20.5672C19.2103 21.545 18.077 22.3243 16.8297 22.8619C15.5376 23.419 14.1488 23.7049 12.7461 23.7023C11.3276 23.7023 9.9536 23.4181 8.66247 22.8619C7.41526 22.3243 6.2819 21.545 5.32508 20.5672C4.36655 19.5927 3.60225 18.4377 3.07449 17.1661C2.52665 15.8479 2.25125 14.4482 2.25125 13C2.25125 11.5519 2.52961 10.1521 3.07449 8.83398C3.6016 7.5612 4.3597 6.41538 5.32508 5.43283C6.29047 4.45027 7.4128 3.67632 8.66247 3.13818C9.9536 2.5819 11.3276 2.29772 12.7461 2.29772C14.1646 2.29772 15.5386 2.57888 16.8297 3.13818C18.0794 3.67632 19.2018 4.45027 20.1671 5.43283C20.4011 5.67166 20.6202 5.91957 20.8305 6.17352C20.9193 6.28538 21.0555 6.34887 21.1947 6.34887H23.2765C23.4631 6.34887 23.5786 6.13724 23.4749 5.97701C21.2036 2.3733 17.2295 -0.0120472 12.7135 4.5768e-05C5.61825 0.0181853 -0.0704125 5.89841 0.000658755 13.133C0.07173 20.2528 5.75151 26 12.7461 26C17.2503 26 21.2066 23.6177 23.4749 20.023C23.5756 19.8628 23.4631 19.6512 23.2765 19.6512ZM25.9091 12.8096L21.707 9.42352C21.5501 9.29654 21.322 9.41142 21.322 9.61398V11.9117H12.0236C11.8933 11.9117 11.7866 12.0205 11.7866 12.1535V13.8465C11.7866 13.9796 11.8933 14.0884 12.0236 14.0884H21.322V16.3861C21.322 16.5886 21.553 16.7035 21.707 16.5765L25.9091 13.1905C25.9374 13.1679 25.9603 13.139 25.9761 13.106C25.9918 13.073 26 13.0367 26 13C26 12.9633 25.9918 12.9271 25.9761 12.8941C25.9603 12.8611 25.9374 12.8322 25.9091 12.8096V12.8096Z" fill="#D72247"/>
</svg>
