<svg width="39" height="39" viewBox="0 0 39 39" fill="none" xmlns="http://www.w3.org/2000/svg">
<path d="M35.3438 15.8438H23.1562V3.65625C23.1562 2.68655 22.771 1.75657 22.0854 1.07089C21.3997 0.385211 20.4697 0 19.5 0C18.5303 0 17.6003 0.385211 16.9146 1.07089C16.229 1.75657 15.8438 2.68655 15.8438 3.65625V15.8438H3.65625C2.68655 15.8438 1.75657 16.229 1.07089 16.9146C0.385211 17.6003 0 18.5303 0 19.5C0 20.4697 0.385211 21.3997 1.07089 22.0854C1.75657 22.771 2.68655 23.1562 3.65625 23.1562H15.8438V35.3438C15.8438 36.3134 16.229 37.2434 16.9146 37.9291C17.6003 38.6148 18.5303 39 19.5 39C20.4697 39 21.3997 38.6148 22.0854 37.9291C22.771 37.2434 23.1562 36.3134 23.1562 35.3438V23.1562H35.3438C36.3134 23.1562 37.2434 22.771 37.9291 22.0854C38.6148 21.3997 39 20.4697 39 19.5C39 18.5303 38.6148 17.6003 37.9291 16.9146C37.2434 16.229 36.3134 15.8438 35.3438 15.8438Z" fill="white"/>
</svg>
