<svg width="17" height="16" viewBox="0 0 17 16" fill="none" xmlns="http://www.w3.org/2000/svg">
<path fill-rule="evenodd" clip-rule="evenodd" d="M6.59996 2.60001C5.59214 2.60001 4.6256 2.97929 3.91296 3.65442C3.20032 4.32955 2.79996 5.24523 2.79996 6.20001C2.79996 7.15479 3.20032 8.07046 3.91296 8.74559C4.6256 9.42072 5.59214 9.80001 6.59996 9.80001C7.60779 9.80001 8.57433 9.42072 9.28697 8.74559C9.99961 8.07046 10.4 7.15479 10.4 6.20001C10.4 5.24523 9.99961 4.32955 9.28697 3.65442C8.57433 2.97929 7.60779 2.60001 6.59996 2.60001ZM0.899963 6.20001C0.899849 5.35014 1.11147 4.51225 1.51763 3.75447C1.92378 2.9967 2.51299 2.34044 3.23734 1.83908C3.96169 1.33771 4.80072 1.0054 5.6862 0.869156C6.57168 0.732915 7.4786 0.796596 8.3332 1.05502C9.18781 1.31345 9.96596 1.75932 10.6044 2.35637C11.2428 2.95343 11.7234 3.68481 12.0072 4.49103C12.291 5.29725 12.3699 6.15554 12.2376 6.9961C12.1052 7.83667 11.7653 8.63577 11.2455 9.32841L15.8216 13.6637C15.9947 13.8334 16.0904 14.0608 16.0883 14.2968C16.0861 14.5327 15.9862 14.7585 15.81 14.9253C15.6339 15.0922 15.3956 15.1869 15.1465 15.1889C14.8975 15.191 14.6575 15.1003 14.4783 14.9363L9.90311 10.6019C9.05036 11.1764 8.04714 11.5174 7.00341 11.5875C5.95967 11.6577 4.91568 11.4543 3.98585 10.9997C3.05601 10.5451 2.27622 9.85673 1.7319 9.01012C1.18759 8.16351 0.89976 7.1913 0.899963 6.20001Z" fill="white"/>
</svg>
