<svg width="20" height="20" viewBox="0 0 20 20" fill="none" xmlns="http://www.w3.org/2000/svg">
<path d="M17.2224 8.33331H11.6669V2.77775C11.6669 2.33572 11.4913 1.9118 11.1787 1.59924C10.8662 1.28668 10.4422 1.11108 10.0002 1.11108C9.55819 1.11108 9.13427 1.28668 8.82171 1.59924C8.50915 1.9118 8.33355 2.33572 8.33355 2.77775V8.33331H2.77799C2.33597 8.33331 1.91204 8.5089 1.59948 8.82146C1.28692 9.13402 1.11133 9.55795 1.11133 9.99997C1.11133 10.442 1.28692 10.8659 1.59948 11.1785C1.91204 11.491 2.33597 11.6666 2.77799 11.6666H8.33355V17.2222C8.33355 17.6642 8.50915 18.0881 8.82171 18.4007C9.13427 18.7133 9.55819 18.8889 10.0002 18.8889C10.4422 18.8889 10.8662 18.7133 11.1787 18.4007C11.4913 18.0881 11.6669 17.6642 11.6669 17.2222V11.6666H17.2224C17.6645 11.6666 18.0884 11.491 18.401 11.1785C18.7135 10.8659 18.8891 10.442 18.8891 9.99997C18.8891 9.55795 18.7135 9.13402 18.401 8.82146C18.0884 8.5089 17.6645 8.33331 17.2224 8.33331Z" fill="#31373D"/>
</svg>
