<svg width="250" height="179" viewBox="0 0 250 179" fill="none" xmlns="http://www.w3.org/2000/svg">
<g clip-path="url(#clip0)">
<path d="M250 107.685C250 138.961 231.375 149.881 208.4 149.881C185.425 149.881 166.8 138.961 166.8 107.685C166.8 76.4096 208.4 36.6221 208.4 36.6221C208.4 36.6221 250 76.4096 250 107.685Z" fill="#F2F2F2"/>
<path d="M206.885 145.097L207.311 118.922L225.042 86.54L207.377 114.816L207.569 103.047L219.789 79.6185L207.619 99.932V99.9323L207.964 78.7643L221.05 60.1127L208.018 75.4359L208.233 36.6219L206.881 88.0045L206.992 85.8849L193.688 65.5559L206.779 89.954L205.539 113.594L205.502 112.967L190.165 91.5735L205.456 115.184L205.301 118.14L205.273 118.185L205.285 118.427L202.141 178.406H206.342L206.847 147.426L222.1 123.873L206.885 145.097Z" fill="#3F3D56"/>
<path d="M22.4993 159.5C22.4993 167.957 17.4626 170.911 11.2496 170.911C5.03664 170.911 0 167.957 0 159.5C0 151.042 11.2496 140.283 11.2496 140.283C11.2496 140.283 22.4993 151.042 22.4993 159.5Z" fill="#F2F2F2"/>
<path d="M10.8399 169.617L10.955 162.539L15.7498 153.782L10.9731 161.428L11.0248 158.245L14.3295 151.91L11.0386 157.403L11.1317 151.679L14.6705 146.635L11.1465 150.779L11.2046 140.283L10.8389 154.178L10.8688 153.604L7.27108 148.107L10.8111 154.705L10.476 161.098L10.466 160.928L6.31848 155.143L10.4533 161.528L10.4115 162.327L10.4041 162.339L10.4074 162.405L9.5568 178.624H10.6933L10.8295 170.247L14.9546 163.878L10.8399 169.617Z" fill="#3F3D56"/>
<path d="M1.58551 178.654H228.066" stroke="#3F3D56" stroke-width="2" stroke-miterlimit="10"/>
<path d="M228.187 171.044C228.187 176.764 224.78 178.762 220.578 178.762C220.48 178.762 220.383 178.761 220.286 178.759C220.091 178.754 219.899 178.745 219.708 178.732C215.915 178.464 212.969 176.364 212.969 171.044C212.969 165.538 220.017 158.59 220.546 158.076L220.547 158.075C220.568 158.055 220.578 158.046 220.578 158.046C220.578 158.046 228.187 165.323 228.187 171.044Z" fill="#F9DC5C"/>
<path d="M220.301 177.887L223.084 174.005L220.294 178.313L220.286 178.759C220.091 178.754 219.899 178.745 219.708 178.732L220.008 173.009L220.006 172.964L220.011 172.956L220.039 172.416L217.242 168.097L220.048 172.01L220.054 172.125L220.281 167.8L217.887 163.338L220.31 167.042L220.546 158.076L220.547 158.046V158.075L220.508 165.145L222.892 162.342L220.498 165.754L220.435 169.626L222.661 165.91L220.426 170.195L220.39 172.348L223.622 167.176L220.378 173.099L220.301 177.887Z" fill="#3F3D56"/>
<path d="M147.058 40.5085H145.597C145.274 40.5085 145.012 40.7698 145.012 41.092V61.5717C145.012 61.894 145.274 62.1552 145.597 62.1552H147.058C147.381 62.1552 147.642 61.894 147.642 61.5717V41.092C147.642 40.7698 147.381 40.5085 147.058 40.5085Z" fill="#3F3D56"/>
<path d="M58.6712 23.5502H57.962C57.7502 23.5502 57.5786 23.7215 57.5786 23.9329V30.2937C57.5786 30.5051 57.7502 30.6764 57.962 30.6764H58.6712C58.8829 30.6764 59.0546 30.5051 59.0546 30.2937V23.9329C59.0546 23.7215 58.8829 23.5502 58.6712 23.5502Z" fill="#3F3D56"/>
<path d="M58.7565 36.597H57.957C57.7183 36.597 57.5248 36.7902 57.5248 37.0285V48.5696C57.5248 48.8078 57.7183 49.001 57.957 49.001H58.7565C58.9952 49.001 59.1887 48.8078 59.1887 48.5696V37.0285C59.1887 36.7902 58.9952 36.597 58.7565 36.597Z" fill="#3F3D56"/>
<path d="M58.7238 53.3411H57.963C57.7358 53.3411 57.5517 53.5249 57.5517 53.7516V65.4416C57.5517 65.6684 57.7358 65.8522 57.963 65.8522H58.7238C58.9509 65.8522 59.1351 65.6684 59.1351 65.4416V53.7516C59.1351 53.5249 58.9509 53.3411 58.7238 53.3411Z" fill="#3F3D56"/>
<path d="M137.328 0H67.5181C62.4903 0 58.4145 4.06879 58.4145 9.08789V169.486C58.4145 174.505 62.4903 178.574 67.5181 178.574H137.328C142.356 178.574 146.432 174.505 146.432 169.486V9.08789C146.432 4.06879 142.356 0 137.328 0Z" fill="#3F3D56"/>
<path d="M105.576 5.3327H94.581C94.223 5.3327 93.9327 5.62245 93.9327 5.97988V7.17703C93.9327 7.53446 94.223 7.82421 94.581 7.82421H105.576C105.934 7.82421 106.224 7.53446 106.224 7.17703V5.97988C106.224 5.62245 105.934 5.3327 105.576 5.3327Z" fill="#E6E8EC"/>
<path d="M109.498 7.99167C110.28 7.99167 110.914 7.35896 110.914 6.57848C110.914 5.79799 110.28 5.16528 109.498 5.16528C108.716 5.16528 108.082 5.79799 108.082 6.57848C108.082 7.35896 108.716 7.99167 109.498 7.99167Z" fill="#E6E8EC"/>
<path d="M140.996 11.6304V166.945C140.996 168.796 140.259 170.57 138.948 171.878C137.637 173.187 135.859 173.922 134.006 173.921H70.841C68.9873 173.922 67.2094 173.187 65.8983 171.878C64.5873 170.57 63.8506 168.796 63.8502 166.945V11.6304C63.8501 10.7139 64.0309 9.80635 64.3822 8.95961C64.7335 8.11288 65.2484 7.34352 65.8976 6.69546C66.5468 6.04741 67.3175 5.53336 68.1657 5.18268C69.0139 4.83199 69.923 4.65153 70.841 4.65161H80.293V5.86353C80.2935 7.38745 80.9001 8.84883 81.9795 9.92641C83.0589 11.004 84.5228 11.6096 86.0494 11.61H118.172C119.699 11.61 121.163 11.0046 122.243 9.92689C123.322 8.84922 123.929 7.38759 123.929 5.86353V4.65161H134.006C134.924 4.65153 135.833 4.83199 136.681 5.18268C137.529 5.53336 138.3 6.04741 138.949 6.69546C139.598 7.34352 140.113 8.11288 140.464 8.95961C140.816 9.80635 140.997 10.7139 140.996 11.6304Z" fill="white"/>
<path d="M141.04 40.6572H63.761V129.26H141.04V40.6572Z" fill="#F2F2F2"/>
<path d="M69.372 141.52L68.9651 141.154C67.5203 139.83 66.5665 138.97 66.5665 137.9C66.5629 137.696 66.6003 137.494 66.6764 137.305C66.7526 137.116 66.866 136.944 67.0098 136.799C67.1537 136.655 67.3252 136.541 67.5141 136.463C67.7029 136.386 67.9054 136.348 68.1095 136.35C68.3503 136.351 68.588 136.405 68.806 136.507C69.024 136.609 69.2171 136.758 69.372 136.942C69.5268 136.758 69.7199 136.609 69.9379 136.507C70.1559 136.405 70.3936 136.351 70.6344 136.35C70.8385 136.348 71.041 136.386 71.2299 136.463C71.4188 136.541 71.5902 136.655 71.7341 136.799C71.878 136.944 71.9913 137.116 72.0675 137.305C72.1436 137.494 72.181 137.696 72.1775 137.9C72.1775 138.97 71.2236 139.83 69.7788 141.154L69.372 141.52Z" fill="#FF6584"/>
<path d="M84.1221 140.166L84.9085 140.39C85.0489 139.983 85.2864 139.617 85.6003 139.323C85.9143 139.028 86.2954 138.815 86.7106 138.7C87.1258 138.586 87.5627 138.574 87.9835 138.666C88.4044 138.758 88.7964 138.951 89.1259 139.228L87.925 140.39H90.9234V137.48L89.7149 138.637C89.2829 138.258 88.7637 137.993 88.2037 137.864C87.6438 137.735 87.0606 137.747 86.5064 137.899C85.9522 138.05 85.4443 138.337 85.0282 138.732C84.6121 139.128 84.3008 139.621 84.1221 140.166L84.1221 140.166Z" fill="#F2F2F2"/>
<path d="M68.8619 34.0375C70.8339 34.0375 72.4325 32.4417 72.4325 30.473C72.4325 28.5044 70.8339 26.9086 68.8619 26.9086C66.8899 26.9086 65.2913 28.5044 65.2913 30.473C65.2913 32.4417 66.8899 34.0375 68.8619 34.0375Z" fill="#F9DC5C"/>
<path d="M108.394 28.4362H75.238V32.5099H108.394V28.4362Z" fill="#F9DC5C"/>
<path d="M99.7224 147.592H66.5665V151.665H99.7224V147.592Z" fill="#F2F2F2"/>
<path d="M136.704 156.472H66.5665V160.546H136.704V156.472Z" fill="#F2F2F2"/>
<path d="M80.849 141.263L79.9704 139.728C80.1805 139.224 80.2014 138.662 80.0292 138.144C79.8571 137.626 79.5034 137.188 79.0333 136.91C78.5632 136.631 78.0083 136.532 77.4706 136.63C76.933 136.727 76.4487 137.015 76.1068 137.441C75.765 137.867 75.5886 138.401 75.61 138.946C75.6315 139.491 75.8494 140.011 76.2237 140.408C76.598 140.806 77.1035 141.055 77.6472 141.11C78.1909 141.165 78.7362 141.023 79.183 140.708L80.849 141.263Z" fill="#F2F2F2"/>
<path d="M95.8617 61.4371H95.8617C94.5492 61.7053 93.3024 62.2288 92.1926 62.978C91.0828 63.7271 90.1316 64.6871 89.3935 65.8032C88.6553 66.9193 88.1446 68.1696 87.8904 69.4827C87.6363 70.7959 87.6437 72.1461 87.9123 73.4563L90.0178 83.7273L92.3753 83.2457L92.5416 82.1572L93.0352 83.1109L107.367 80.183L107.534 79.0946L108.027 80.0482L110.007 79.6437L107.902 69.3728C107.633 68.0625 107.109 66.8179 106.358 65.71C105.608 64.6021 104.646 63.6526 103.528 62.9157C102.41 62.1788 101.158 61.6689 99.8422 61.4152C98.5268 61.1616 97.1743 61.169 95.8617 61.4371Z" fill="#2F2E41"/>
<path d="M113.622 92.9482L125.864 100.332L124.334 103.896L112.857 98.5496L113.622 92.9482Z" fill="#9F616A"/>
<path d="M98.0646 101.35C98.0646 101.35 73.3252 101.35 69.2445 107.715C65.1637 114.081 68.4793 122.992 81.2316 125.029C93.9839 127.065 132.751 128.084 135.811 120.446C138.872 112.808 136.577 108.479 136.577 108.479C136.577 108.479 123.314 99.3134 98.0646 101.35Z" fill="#F9DC5C"/>
<path d="M119.999 107.461L133.516 112.553C133.516 112.553 139.127 108.479 136.321 103.896C133.516 99.3134 120.764 72.8344 120.764 72.8344C120.764 72.8344 117.193 67.7423 121.784 64.9416C126.375 62.1409 128.16 66.7238 128.16 66.7238C128.16 66.7238 127.905 67.7423 129.69 66.9784C131.476 66.2146 134.791 68.7607 133.006 72.8344C131.221 76.9081 129.945 77.9265 133.771 77.6719C135.152 77.5799 136.368 76.5916 137.357 75.3662C139.252 73.0175 138.406 71.1257 138.262 68.1131C138.017 62.9524 137.615 59.5874 136.321 57.558C134.536 54.7574 131.986 52.4659 125.354 53.7389C118.723 55.012 109.032 61.3771 111.327 70.5429C113.622 79.7087 118.723 89.893 118.723 89.893C118.723 89.893 122.294 104.151 119.999 107.461Z" fill="#F9DC5C"/>
<path opacity="0.1" d="M119.999 107.461C117.795 108.067 115.028 108.362 112.049 108.454C106.851 108.614 101 108.156 96.3277 107.637C91.2804 107.074 87.6077 106.442 87.6077 106.442C89.314 104.854 91.9359 104.225 95.0168 103.996C98.8425 103.71 103.377 104.036 107.756 103.896C109.371 103.84 110.986 103.961 112.574 104.258C117.405 105.177 119.999 107.461 119.999 107.461Z" fill="black"/>
<path d="M97.9371 80.0906C101.881 80.0906 105.078 76.8988 105.078 72.9616C105.078 69.0244 101.881 65.8326 97.9371 65.8326C93.993 65.8326 90.7958 69.0244 90.7958 72.9616C90.7958 76.8988 93.993 80.0906 97.9371 80.0906Z" fill="#9F616A"/>
<path d="M97.0444 78.6903C97.0444 78.6903 98.3196 83.5278 97.0444 83.7824C95.7692 84.037 92.7086 85.3101 92.7086 85.3101L96.5343 86.8377L103.676 93.4575L109.797 96.5127L112.857 95.4943V89.893L108.266 82.764C108.266 82.764 105.206 83.7824 104.441 80.4726C103.676 77.1627 102.145 75.8896 102.145 75.8896L97.0444 78.6903Z" fill="#9F616A"/>
<path d="M95.2591 85.5647H92.1985C92.1985 85.5647 86.8426 87.3469 83.782 91.4206C80.7215 95.4943 75.8756 99.568 75.8756 99.568C75.8756 99.568 72.56 104.151 74.3453 110.516C76.1307 116.881 78.6811 121.464 80.9765 120.191C83.2719 118.918 77.6609 109.752 77.6609 109.752L79.1912 104.151C79.1912 104.151 87.0976 94.9851 90.4132 95.2397C93.7288 95.4943 93.9839 98.295 93.9839 98.295L101.125 100.332L103.421 95.4943L102.145 90.4022L95.2591 85.5647Z" fill="#9F616A"/>
<path d="M113.622 101.605C113.14 102.431 112.787 103.325 112.574 104.258C112.256 105.635 112.08 107.041 112.049 108.454C106.851 108.614 101 108.156 96.3277 107.636C95.9146 106.537 95.4606 105.271 95.0168 103.996C93.8207 100.548 92.7087 97.0295 92.7087 96.5127C92.7087 95.4943 98.0646 97.2765 99.3399 97.0219C100.615 96.7673 101.125 92.6936 99.3399 90.6568C97.5545 88.6199 92.3261 85.1827 92.3261 85.1827L94.1114 84.6735C94.1114 84.6735 98.0646 87.6015 106.226 92.439C114.388 97.2765 111.072 89.6383 111.072 89.6383L106.354 82.3821H108.394C108.394 82.3821 112.347 89.1291 114.388 92.1844C116.428 95.2397 115.663 98.2949 113.622 101.605Z" fill="#3F3D56"/>
<path d="M102.991 63.344L90.0563 65.9863L91.6805 73.9096L104.615 71.2673L102.991 63.344Z" fill="#2F2E41"/>
<path d="M130.838 64.305C132.951 64.305 134.664 62.5952 134.664 60.486C134.664 58.3767 132.951 56.6669 130.838 56.6669C128.725 56.6669 127.012 58.3767 127.012 60.486C127.012 62.5952 128.725 64.305 130.838 64.305Z" fill="#3F3D56"/>
<path d="M130.838 62.5228C131.965 62.5228 132.878 61.6109 132.878 60.4859C132.878 59.361 131.965 58.4491 130.838 58.4491C129.711 58.4491 128.798 59.361 128.798 60.4859C128.798 61.6109 129.711 62.5228 130.838 62.5228Z" fill="white"/>
<path d="M18.5509 104.57L18.2903 106.579C18.202 107.259 18.1137 107.94 18.0662 108.624C17.9082 110.9 18.2028 113.185 18.1253 115.465C18.0656 117.221 17.7854 118.975 17.9207 120.727C18.0404 122.276 18.4821 123.78 18.9213 125.27L19.549 127.401C19.5541 127.464 19.5739 127.526 19.6068 127.581C19.6397 127.636 19.6848 127.682 19.7386 127.717C19.7924 127.751 19.8535 127.773 19.917 127.78C19.9806 127.787 20.045 127.78 20.1052 127.758L22.8831 127.507C22.7051 126.692 22.5073 125.844 22.4117 125.016C22.3361 124.361 22.2906 123.703 22.2432 123.046C22.0954 120.997 21.928 118.949 21.7607 116.901L21.4667 113.304C21.3391 111.744 21.2101 110.174 20.8166 108.659C20.4244 107.125 19.6443 105.717 18.5509 104.57Z" fill="#F9DC5C"/>
<path opacity="0.1" d="M18.5509 104.57L18.2903 106.579C18.202 107.259 18.1137 107.94 18.0662 108.624C17.9082 110.9 18.2028 113.185 18.1253 115.465C18.0656 117.221 17.7854 118.975 17.9207 120.727C18.0404 122.276 18.4821 123.78 18.9213 125.27L19.549 127.401C19.5541 127.464 19.5739 127.526 19.6068 127.581C19.6397 127.636 19.6848 127.682 19.7386 127.717C19.7924 127.751 19.8535 127.773 19.917 127.78C19.9806 127.787 20.045 127.78 20.1052 127.758L22.8831 127.507C22.7051 126.692 22.5073 125.844 22.4117 125.016C22.3361 124.361 22.2906 123.703 22.2432 123.046C22.0954 120.997 21.928 118.949 21.7607 116.901L21.4667 113.304C21.3391 111.744 21.2101 110.174 20.8166 108.659C20.4244 107.125 19.6443 105.717 18.5509 104.57Z" fill="black"/>
<path d="M23.4997 173.463C23.3361 173.783 23.1938 174.113 23.0735 174.452C22.7546 175.387 22.7064 176.388 22.661 177.375C22.6392 177.565 22.6569 177.758 22.713 177.941C22.8493 178.296 23.2423 178.475 23.6097 178.574C25.1482 178.987 26.7705 178.598 28.3574 178.457C29.915 178.318 31.5016 178.418 33.0272 178.075C33.2526 178.033 33.4706 177.957 33.6739 177.851C34.0606 177.6 34.3491 177.224 34.491 176.786C34.5374 176.674 34.5686 176.556 34.5838 176.436C34.6341 175.917 34.181 175.466 33.6875 175.295C33.1939 175.125 32.6573 175.153 32.1377 175.099C31.069 174.99 30.0662 174.532 29.2846 173.796C28.503 173.06 27.9862 172.087 27.8141 171.028C27.7957 170.915 25.2451 170.982 24.9766 171.129C24.6624 171.301 24.4722 171.731 24.2952 172.021C24.0092 172.49 23.744 172.971 23.4997 173.463Z" fill="#3F3D56"/>
<path opacity="0.1" d="M23.4997 173.463C23.3361 173.783 23.1938 174.113 23.0735 174.452C22.7546 175.387 22.7064 176.388 22.661 177.375C22.6392 177.565 22.6569 177.758 22.713 177.941C22.8493 178.296 23.2423 178.475 23.6097 178.574C25.1482 178.987 26.7705 178.598 28.3574 178.457C29.915 178.318 31.5016 178.418 33.0272 178.075C33.2526 178.033 33.4706 177.957 33.6739 177.851C34.0606 177.6 34.3491 177.224 34.491 176.786C34.5374 176.674 34.5686 176.556 34.5838 176.436C34.6341 175.917 34.181 175.466 33.6875 175.295C33.1939 175.125 32.6573 175.153 32.1377 175.099C31.069 174.99 30.0662 174.532 29.2846 173.796C28.503 173.06 27.9862 172.087 27.8141 171.028C27.7957 170.915 25.2451 170.982 24.9766 171.129C24.6624 171.301 24.4722 171.731 24.2952 172.021C24.0092 172.49 23.744 172.971 23.4997 173.463Z" fill="black"/>
<path d="M27.7288 173.704C27.5652 174.024 27.4228 174.355 27.3026 174.693C26.9837 175.628 26.9355 176.63 26.8901 177.616C26.8683 177.806 26.886 177.999 26.9421 178.182C27.0784 178.537 27.4714 178.717 27.8388 178.815C29.3773 179.228 30.9996 178.84 32.5864 178.698C34.144 178.559 35.7306 178.659 37.2562 178.316C37.4817 178.274 37.6996 178.198 37.9029 178.092C38.2896 177.841 38.5781 177.465 38.72 177.027C38.7664 176.915 38.7976 176.797 38.8128 176.677C38.8632 176.158 38.4101 175.707 37.9165 175.536C37.423 175.366 36.8864 175.394 36.3668 175.341C35.298 175.231 34.2952 174.773 33.5136 174.037C32.7321 173.301 32.2152 172.328 32.0432 171.27C32.0248 171.156 29.4741 171.223 29.2057 171.37C28.8915 171.542 28.7013 171.972 28.5242 172.262C28.2382 172.731 27.9731 173.212 27.7288 173.704Z" fill="#3F3D56"/>
<path d="M38.7591 148.571C38.792 153.684 37.3024 158.682 35.5553 163.488C34.8637 165.39 34.1297 167.277 33.3534 169.146C32.8939 170.254 32.3761 171.483 32.8685 172.577C31.4513 172.038 30.0003 171.72 28.5041 171.969C29.0736 170.81 29.0201 169.461 29.0455 168.171C29.0949 166.42 29.2838 164.675 29.6103 162.953C30.1114 160.333 30.9713 157.795 32.1655 155.409C32.4077 154.906 32.5745 154.371 32.6608 153.819C32.8159 152.593 32.7445 151.349 32.4503 150.148C31.9044 147.489 30.868 144.953 29.3941 142.672C29.3894 142.723 29.3847 142.774 29.3791 142.825C29.2899 143.585 29.1616 144.34 28.9947 145.088C28.6601 146.671 28.2701 148.256 28.3284 149.848C28.3911 151.537 28.2863 153.227 28.0155 154.895C27.9294 155.551 27.7585 156.192 27.507 156.803C27.3435 157.169 27.1302 157.514 27.0014 157.893C26.8737 158.331 26.807 158.784 26.8031 159.241C26.6124 163.091 26.8003 168.018 27.5888 171.792C26.2601 171.731 24.9397 172.031 23.7686 172.661C22.8156 169.977 22.2085 166.164 21.7546 163.338C21.2406 159.999 21.3451 156.593 22.0628 153.292C22.2861 152.19 22.3698 151.065 22.3119 149.943C22.2104 147.707 21.6597 145.52 21.1127 143.35C20.8346 142.249 20.5564 141.147 20.2782 140.045C19.8826 138.475 19.4863 136.906 19.0894 135.335C18.8262 134.291 18.5603 133.225 18.643 132.15C18.7011 131.561 18.825 130.981 19.0123 130.419C19.6043 128.509 20.4895 126.701 21.6362 125.062C26.2026 125.318 30.8245 124.891 35.3843 124.541C35.606 124.497 35.8361 124.536 36.0309 124.651C36.1857 124.808 36.2779 125.017 36.2903 125.237C36.8616 128.467 37.4327 131.697 38.0035 134.927C38.2814 136.276 38.4446 137.646 38.4912 139.022C38.4997 140.394 38.277 141.761 38.3286 143.132C38.3982 144.978 38.7478 146.724 38.7591 148.571Z" fill="#2F2E41"/>
<path opacity="0.1" d="M29.3791 142.825C29.2899 143.585 29.1616 144.341 28.9947 145.088C28.0013 143.373 26.9309 141.701 26.0165 139.943C25.7806 139.49 25.556 139.031 25.3305 138.573C25.1059 138.115 24.8813 137.657 24.6566 137.2C24.5307 136.943 24.4039 136.685 24.2901 136.421C24.1044 136.041 23.9619 135.642 23.8654 135.23C24.198 135.169 25.0175 136.064 25.2637 136.298C25.7688 136.795 26.2457 137.32 26.6922 137.87C27.2324 138.481 27.7284 139.129 28.1761 139.81C28.7484 140.738 29.1554 141.758 29.3791 142.825Z" fill="black"/>
<path d="M33.1842 95.761C33.1842 95.761 30.6468 99.7952 31.1167 100.64C31.5866 101.484 23.1285 99.889 23.1285 99.889C23.1285 99.889 27.7335 95.8548 27.2636 94.1661C26.7937 92.4774 33.1842 95.761 33.1842 95.761Z" fill="#EFB7B9"/>
<path d="M30.9288 96.9805C34.0949 96.9805 36.6615 94.4183 36.6615 91.2577C36.6615 88.0971 34.0949 85.5349 30.9288 85.5349C27.7627 85.5349 25.1961 88.0971 25.1961 91.2577C25.1961 94.4183 27.7627 96.9805 30.9288 96.9805Z" fill="#EFB7B9"/>
<path d="M33.2692 99.9909C32.6556 99.1386 31.8226 98.4677 30.8584 98.0492C30.3033 97.8508 29.7294 97.7095 29.1457 97.6272L26.8585 97.2259C26.298 97.1275 25.6981 97.0334 25.178 97.2643C24.9122 97.3982 24.6702 97.5748 24.4617 97.787C23.6667 98.5219 22.8964 99.3302 21.8997 99.7543C21.6268 99.8705 21.3415 99.9555 21.069 100.073C19.9539 100.552 19.1201 101.553 18.6464 102.669C18.1494 103.84 18.135 105.109 18.1743 106.379C18.173 106.818 18.2162 107.256 18.3032 107.685C18.4186 108.095 18.5636 108.495 18.737 108.883C19.0529 109.712 19.3174 110.56 19.5291 111.421C20.1216 113.685 20.6142 115.973 21.0069 118.283C21.0411 118.615 21.139 118.937 21.2951 119.233C21.5158 119.526 21.7828 119.783 22.0858 119.991C22.3257 120.189 22.5474 120.409 22.7484 120.646C22.8465 120.748 22.9183 120.871 22.9578 121.007C23.032 121.348 22.7296 121.641 22.4842 121.89C21.9744 122.409 21.6059 123.05 21.4136 123.751C21.2938 123.895 21.2331 124.079 21.2436 124.266C21.2927 124.395 21.3109 124.534 21.297 124.671C21.2499 124.797 21.1764 124.911 21.0814 125.006C20.9721 125.148 20.8943 125.312 20.8533 125.486C20.8123 125.661 20.809 125.842 20.8435 126.018C22.6205 126.788 24.5221 127.233 26.4572 127.329C26.931 127.352 27.4067 127.352 27.8775 127.41C28.2133 127.451 28.545 127.521 28.881 127.561C29.3698 127.606 29.8612 127.619 30.3518 127.598C32.9033 127.548 35.5298 127.482 37.8728 126.472C38.0935 125.272 37.618 124.05 37.3198 122.867C36.8454 120.986 36.7259 119.035 36.3729 117.127C36.1314 115.822 35.7805 114.537 35.5793 113.225C35.3782 111.912 35.331 110.551 35.6924 109.274C36.0127 108.142 36.1093 106.989 36.4413 105.86C36.7733 104.731 37.0059 103.507 36.6312 102.392C36.1665 101.009 34.7285 99.9146 33.2692 99.9909Z" fill="#F9DC5C"/>
<path d="M36.0846 88.2239C36.3633 87.2077 35.8151 86.15 35.1592 85.3245C34.4545 84.4376 33.544 83.6373 32.4321 83.4145C31.5285 83.2335 30.5922 83.452 29.6735 83.3793C28.8592 83.3148 28.0789 83.0233 27.2688 82.9187C26.536 82.8402 25.7956 82.8682 25.0709 83.0019C24.3819 83.1023 23.7086 83.29 23.0672 83.5606C20.6269 84.64 19.1971 87.3059 18.8653 89.9497C18.5335 92.5936 19.1153 95.2572 19.6936 97.8585L20.2164 100.21C20.7605 102.657 21.3064 105.117 21.452 107.62C21.5976 110.123 21.326 112.692 20.2947 114.978C23.6291 113.19 26.2126 110.27 27.5781 106.746C27.9489 105.778 28.2234 104.774 28.6342 103.822C28.9876 103.003 29.44 102.228 29.7533 101.393C30.1065 100.45 30.2762 99.448 30.253 98.4413C30.2352 97.6847 30.1084 96.9317 30.1305 96.1753C30.1526 95.4188 30.3453 94.6294 30.8692 94.0823C31.3348 93.5961 31.9964 93.3625 32.5965 93.0563C33.5401 92.5726 34.3644 91.8859 35.0101 91.0457C35.3879 90.5543 35.408 90.3445 35.5041 89.7777C35.5976 89.2262 35.9378 88.759 36.0846 88.2239Z" fill="#2F2E41"/>
<path d="M36.0925 131.216C36.1505 131.805 36.0435 132.408 36.1724 132.985C36.2692 133.418 36.4943 133.813 36.6267 134.237C36.7581 134.728 36.8257 135.235 36.8278 135.744C36.847 136.17 36.8142 136.689 36.4361 136.889C36.2701 136.977 36.0709 136.979 35.8981 137.052C35.7252 137.126 35.577 137.335 35.6759 137.495C35.7591 137.629 35.948 137.63 36.1028 137.662C36.2576 137.694 36.4279 137.854 36.3381 137.984C36.302 138.026 36.2539 138.057 36.2002 138.071C36.0419 138.119 35.8921 138.191 35.7561 138.285C35.6887 138.333 35.6359 138.398 35.6037 138.474C35.5714 138.55 35.5609 138.634 35.5733 138.716C35.5826 138.755 35.6008 138.792 35.6264 138.823C35.652 138.854 35.6844 138.879 35.7212 138.896C35.7579 138.913 35.7981 138.921 35.8385 138.92C35.879 138.92 35.9187 138.909 35.9547 138.891C35.8853 139.039 35.8475 139.2 35.8434 139.363C36.4484 139.622 37.1293 139.283 37.6986 138.953C37.9455 138.816 38.1839 138.665 38.4124 138.499C38.8708 138.146 39.2358 137.686 39.4756 137.159C39.7153 136.633 39.8226 136.056 39.7881 135.479C39.7617 135.189 39.7171 134.9 39.6545 134.615C39.5662 134.12 39.4497 133.63 39.3055 133.147C39.1428 132.639 38.9191 132.152 38.7272 131.654C38.3184 130.592 38.0553 129.48 37.6872 128.403C37.6819 128.352 37.666 128.302 37.6406 128.257C37.6151 128.212 37.5806 128.172 37.5392 128.141C37.4978 128.11 37.4505 128.088 37.4001 128.076C37.3497 128.064 37.2973 128.063 37.2464 128.072C36.8316 128.05 36.4158 128.088 36.0119 128.185C35.7678 128.256 35.3675 128.413 35.2581 128.668C35.1595 128.898 35.3247 129.104 35.4295 129.301C35.7728 129.89 35.9979 130.541 36.0925 131.216Z" fill="#EFB7B9"/>
<path opacity="0.1" d="M35.7047 102.466C35.827 102.59 35.9294 102.732 36.0084 102.888C36.8229 104.366 36.8332 106.134 36.8715 107.821C36.9146 109.719 37.0186 111.615 37.1227 113.511L37.4339 119.181C37.4636 119.722 37.4934 120.265 37.5695 120.802C37.9356 120.894 37.9507 121.366 37.9083 121.741C37.6463 124.055 36.9942 126.436 37.6771 128.663C37.7032 128.778 37.7581 128.884 37.8367 128.971C37.4926 128.863 37.1241 128.858 36.7771 128.957C36.4367 129.029 36.1094 129.153 35.7703 129.23C35.3387 129.328 34.8494 129.37 34.5549 129.7C34.2222 128.7 33.9573 127.678 33.7619 126.642C33.6003 125.7 33.5562 124.721 33.172 123.847C33.0168 123.493 32.8095 123.166 32.6203 122.829C31.6251 121.06 31.1379 119.058 30.6617 117.085C30.4478 116.15 30.3966 115.185 30.5101 114.232C30.5778 113.797 30.6175 113.359 30.629 112.919C30.5987 112.455 30.5378 111.993 30.4467 111.537C30.2457 110.2 30.3398 108.835 30.7226 107.537C31.0792 106.332 31.3919 105.065 32.1377 104.053C32.8836 103.041 34.4463 102.483 35.7047 102.466Z" fill="black"/>
<path d="M35.9866 102.278C36.1089 102.402 36.2114 102.545 36.2903 102.7C37.1048 104.178 37.1151 105.947 37.1534 107.633C37.1965 109.531 37.3006 111.427 37.4046 113.323L37.7158 118.993C37.7455 119.535 37.7753 120.077 37.8514 120.614C38.2175 120.706 38.2326 121.179 38.1902 121.553C37.9282 123.867 37.2761 126.249 37.959 128.475C37.9851 128.59 38.04 128.696 38.1187 128.784C37.7745 128.675 37.406 128.67 37.059 128.769C36.7186 128.841 36.3914 128.965 36.0522 129.042C35.6206 129.14 35.1313 129.182 34.8369 129.512C34.5042 128.512 34.2392 127.49 34.0438 126.454C33.8822 125.513 33.8382 124.534 33.4539 123.659C33.2987 123.306 33.0914 122.978 32.9023 122.642C31.907 120.872 31.4198 118.871 30.9436 116.898C30.7298 115.962 30.6785 114.997 30.792 114.044C30.8597 113.609 30.8994 113.171 30.9109 112.731C30.8806 112.267 30.8197 111.806 30.7286 111.35C30.5276 110.012 30.6217 108.647 31.0045 107.349C31.3612 106.145 31.6739 104.877 32.4197 103.865C33.1655 102.853 34.7282 102.295 35.9866 102.278Z" fill="#F9DC5C"/>
<g opacity="0.1">
<path opacity="0.1" d="M35.1592 85.3245C34.4544 84.4376 33.5439 83.6373 32.432 83.4145C31.5284 83.2335 30.5922 83.452 29.6735 83.3793C28.8591 83.3148 28.0789 83.0233 27.2687 82.9187C26.5359 82.8402 25.7956 82.8682 25.0708 83.0019C24.3818 83.1023 23.7085 83.29 23.0672 83.5606C22.7206 83.7146 22.3899 83.9019 22.0796 84.1198C22.6513 83.9037 23.2445 83.7492 23.8491 83.6587C24.5738 83.5249 25.3142 83.4969 26.047 83.5754C26.8571 83.68 27.6374 83.9715 28.4517 84.036C29.3704 84.1087 30.3067 83.8902 31.2103 84.0712C32.3222 84.294 33.2327 85.0943 33.9374 85.9812C34.5933 86.8067 35.1415 87.8644 34.8628 88.8806C34.716 89.4157 34.3758 89.8829 34.2823 90.4344C34.1862 91.0012 34.1661 91.2111 33.7883 91.7025C33.302 92.3344 32.7138 92.8813 32.0478 93.3206C32.2316 93.2332 32.4167 93.148 32.5964 93.0563C33.54 92.5726 34.3643 91.8859 35.01 91.0457C35.3878 90.5544 35.4079 90.3445 35.504 89.7776C35.5975 89.2262 35.9377 88.759 36.0845 88.2239C36.3633 87.2077 35.815 86.15 35.1592 85.3245Z" fill="black"/>
<path opacity="0.1" d="M30.8691 94.0823C30.9676 93.9805 31.0749 93.8875 31.1896 93.8044C30.6419 94.0692 30.0656 94.3022 29.6474 94.739C29.1236 95.286 28.9308 96.0754 28.9087 96.8319C28.8866 97.5883 29.0134 98.3414 29.0313 99.0979C29.0544 100.105 28.8848 101.106 28.5315 102.05C28.2183 102.885 27.7658 103.66 27.4124 104.479C27.0017 105.43 26.7272 106.435 26.3563 107.402C25.1718 110.457 23.0683 113.07 20.3352 114.883C20.3213 114.914 20.3088 114.946 20.2946 114.978C23.629 113.19 26.2126 110.27 27.578 106.746C27.9489 105.778 28.2234 104.774 28.6341 103.822C28.9876 103.003 29.44 102.228 29.7532 101.393C30.1065 100.45 30.2761 99.4479 30.253 98.4412C30.2352 97.6846 30.1083 96.9316 30.1304 96.1752C30.1525 95.4187 30.3453 94.6293 30.8691 94.0823Z" fill="black"/>
</g>
<path d="M156.768 178.195C156.495 178.524 156.028 178.59 155.605 178.634C155.059 178.713 154.505 178.723 153.956 178.665C153.304 178.568 152.913 178.938 152.318 178.654C151.957 178.482 151.403 178.826 151.042 178.654C150.548 178.418 148.843 178.369 148.542 177.908C148.241 177.448 148.272 176.72 148.748 176.448C148.882 176.384 149.021 176.33 149.164 176.286C149.96 175.969 151.572 173.584 152.419 173.462C152.839 173.442 153.257 173.54 153.624 173.745C154.459 174.115 155.933 174.407 156.298 175.347C156.581 176.078 157.358 177.48 156.768 178.195Z" fill="#2F2E41"/>
<path d="M162.766 178.006C163.039 178.335 163.506 178.401 163.929 178.445C164.475 178.524 165.029 178.534 165.578 178.476C166.23 178.379 167.025 178.938 167.62 178.654C167.981 178.481 168.535 178.571 168.895 178.399C169.389 178.163 171.711 178.689 172.012 178.229C172.313 177.768 172.282 177.04 171.807 176.769C171.672 176.705 171.533 176.65 171.39 176.606C170.594 176.29 167.962 173.395 167.115 173.273C166.695 173.253 166.277 173.352 165.91 173.556C165.075 173.926 163.601 174.219 163.236 175.158C162.953 175.889 162.176 177.291 162.766 178.006Z" fill="#2F2E41"/>
<path d="M165.403 126.017C165.664 126.518 165.892 127.035 166.086 127.565C168.401 133.679 168.595 140.361 168.691 146.897C168.683 147.96 168.743 149.022 168.873 150.077C168.97 150.746 169.123 151.422 169.024 152.09C168.939 152.669 168.666 153.239 168.775 153.813C168.823 154.071 168.947 154.309 168.996 154.567C169.033 154.849 169.026 155.136 168.973 155.416L168.662 157.722C168.486 159.035 168.077 160.3 168.1 161.625C168.115 162.529 168.13 163.434 168.231 164.333C168.333 165.245 168.524 166.15 168.534 167.068C168.541 167.755 168.447 168.439 168.386 169.123C168.3 170.09 168.28 171.062 168.327 172.031C168.364 172.778 168.449 173.554 168.846 174.188C168.402 174.825 167.962 175.395 167.25 175.707C165.803 176.34 164.143 176.125 162.58 175.899C162.667 175.611 162.801 175.284 162.676 175.011C162.602 174.878 162.512 174.756 162.407 174.646C162.066 174.162 161.829 173.612 161.712 173.031C161.523 172.343 161.333 171.602 161.722 170.941C161.856 170.706 161.915 170.436 161.891 170.166C161.568 165.832 160.602 161.347 161.491 157.093C161.586 156.639 161.699 156.188 161.752 155.727C161.8 155.064 161.808 154.399 161.776 153.735L161.758 152.811C161.711 151.825 161.751 150.815 161.553 149.84C161.411 149.141 161.146 148.439 161.473 147.728C161.544 147.564 161.577 147.387 161.568 147.209C161.56 147.031 161.511 146.858 161.425 146.702C160.738 145.501 160.186 144.228 159.778 142.907C159.693 142.538 159.577 142.176 159.431 141.826C159.232 141.458 159.003 141.106 158.746 140.775C157.972 139.654 157.509 138.352 157.054 137.068C157.102 136.95 157.065 136.786 156.939 136.803C156.814 136.835 156.706 136.915 156.64 137.026C156.017 137.862 155.965 138.977 155.937 140.019C155.89 140.986 155.906 141.956 155.987 142.922C156.04 143.428 156.128 143.929 156.174 144.436C156.233 145.381 156.218 146.33 156.129 147.273L155.811 151.913C155.767 152.296 155.791 152.684 155.879 153.06C156.083 153.71 156.183 154.389 156.174 155.07C156.09 157.873 156.333 160.676 156.897 163.423C157.052 164.181 157.232 164.935 157.364 165.698C157.674 167.496 157.717 169.327 157.759 171.151C157.785 172.272 157.803 173.434 157.36 174.465C157.187 174.783 157.061 175.124 156.983 175.477C156.982 175.659 156.958 175.84 156.911 176.017C156.781 176.35 156.391 176.493 156.041 176.569C155.383 176.712 154.707 176.76 154.035 176.711C153.877 176.709 153.722 176.674 153.578 176.61C153.327 176.48 153.194 176.206 153.003 175.998C152.592 175.549 151.908 175.412 151.534 174.933C151.065 174.334 151.262 173.465 151.541 172.758C151.82 172.05 152.165 171.282 151.925 170.561C151.642 169.711 150.639 169.253 150.37 168.398C151.138 164.952 149.252 161.387 149.413 157.859C149.451 157.038 149.594 156.222 149.597 155.4C149.604 153.281 148.685 151.22 148.836 149.106C149.22 143.736 147.388 138.375 146.612 133.047C146.465 132.252 146.41 131.442 146.448 130.634C146.563 129.301 147.183 128.06 147.929 126.947C148.464 126.15 149.106 125.37 149.992 124.997C150.72 124.69 151.537 124.692 152.328 124.698C154.302 124.713 156.276 124.728 158.25 124.764C159.593 124.745 160.935 124.865 162.253 125.121C163.321 125.365 164.319 125.862 165.403 126.017Z" fill="#2F2E41"/>
<path d="M133.511 101.535C133.32 100.601 133.681 99.6016 133.399 98.6909C133.297 98.3626 133.046 98.0212 132.702 98.0308C132.368 98.04 132.141 98.3669 131.845 98.5217C131.367 98.7713 130.786 98.5446 130.309 98.2945C129.831 98.0444 129.298 97.7614 128.78 97.9113C128.719 98.2353 128.938 98.5441 129.177 98.7722C129.441 98.9714 129.659 99.2243 129.818 99.5143C129.896 99.8278 129.925 100.151 129.906 100.474C129.96 101.214 130.429 101.851 130.898 102.426C131.654 103.354 132.457 104.242 133.303 105.088C133.301 105.087 134.586 103.499 134.562 103.222C134.539 102.96 134.106 102.715 133.949 102.505C133.734 102.217 133.584 101.886 133.511 101.535Z" fill="#A1616A"/>
<path d="M171.784 121.089C171.898 121.386 171.984 121.693 172.04 122.006C172.372 123.61 172.581 125.237 172.787 126.862C172.842 127.295 172.896 127.73 172.913 128.166C172.972 129.204 172.758 130.238 172.293 131.167C171.821 132.099 171.017 132.822 170.04 133.194C169.739 133.301 169.318 133.321 169.187 133.03C169.14 132.896 169.141 132.749 169.189 132.615C169.308 132.182 169.55 131.794 169.707 131.374C169.94 130.745 169.979 130.062 169.819 129.412C169.757 129.163 169.626 128.885 169.375 128.836C169.5 129.409 169.394 130.009 169.08 130.505C169.008 130.644 168.885 130.748 168.737 130.796C168.633 130.806 168.528 130.781 168.44 130.725C168.352 130.668 168.286 130.583 168.253 130.484C168.191 130.284 168.178 130.073 168.214 129.866C168.295 128.824 168.453 127.789 168.689 126.771C168.97 125.652 169.415 124.549 169.386 123.397C169.361 122.353 168.944 121.328 169.061 120.289C169.062 120.225 169.083 120.163 169.12 120.111C169.157 120.074 169.201 120.047 169.25 120.031C169.542 119.91 169.843 119.811 170.149 119.734C170.33 119.688 170.949 119.474 171.122 119.569C171.263 119.647 171.306 120.112 171.376 120.27C171.5 120.548 171.666 120.807 171.784 121.089Z" fill="#A1616A"/>
<path d="M151.142 90.1546C153.501 90.1546 155.413 88.2456 155.413 85.8907C155.413 83.5357 153.501 81.6267 151.142 81.6267C148.783 81.6267 146.871 83.5357 146.871 85.8907C146.871 88.2456 148.783 90.1546 151.142 90.1546Z" fill="#A1616A"/>
<path d="M154.969 88.9764C154.969 89.2482 154.99 89.5195 155.034 89.7877C155.093 90.0591 155.176 90.3245 155.283 90.5809C155.426 90.9977 155.627 91.3922 155.881 91.7524C156.139 92.115 156.525 92.3662 156.962 92.4555C154.042 93.8215 150.926 94.7206 147.727 95.12C148.231 94.7852 148.65 94.3382 148.952 93.8142C149.112 93.4778 149.221 93.1196 149.276 92.7512C149.549 91.2097 149.41 89.6239 148.875 88.1527C148.822 88.0076 148.77 87.8295 148.87 87.7121C148.913 87.6686 148.965 87.6351 149.022 87.6137C150.29 87.0776 151.66 86.8225 153.037 86.8661C153.389 86.8685 153.741 86.8841 154.092 86.9094C154.281 86.923 154.698 86.8833 154.848 87.0214C155.027 87.1861 154.937 87.6973 154.943 87.9206L154.969 88.9764Z" fill="#A1616A"/>
<path d="M157.229 92.0785C156.601 91.2747 155.721 90.704 154.73 90.4575C153.739 90.211 152.694 90.3029 151.761 90.7185C149.728 91.6874 148.727 94.0139 146.939 95.382C146.532 95.6858 146.099 95.9523 145.644 96.1783C145.376 96.3263 145.089 96.4394 144.792 96.5148C144.458 96.5884 144.109 96.5781 143.776 96.6581C143.142 96.844 142.602 97.2624 142.265 97.8294C142.097 98.1259 141.912 98.4117 141.709 98.6854C141.522 98.9068 141.29 99.0857 141.092 99.2977C140.381 100.06 140.188 101.156 140.026 102.185C139.47 102.77 138.863 103.304 138.212 103.782C138.007 103.939 137.78 104.065 137.538 104.154C136.913 104.356 136.223 104.099 135.69 103.715C135.157 103.33 134.722 102.823 134.197 102.429C133.714 103.118 133.209 103.809 132.694 104.475C132.616 104.602 132.498 104.699 132.358 104.75C132.262 105.075 132.493 105.411 132.667 105.702L133.598 107.265C133.906 107.833 134.284 108.362 134.723 108.837C135.168 109.315 135.775 109.61 136.427 109.665C136.838 109.661 137.245 109.583 137.629 109.435C139.404 108.839 141.033 107.888 142.722 107.08C143.027 106.905 143.37 106.805 143.722 106.787C143.898 106.782 144.07 106.835 144.213 106.938C144.356 107.041 144.461 107.187 144.512 107.355C144.706 108.331 144.898 109.303 145.164 110.262C145.416 111.167 145.649 112.076 145.864 112.989C146.008 113.548 146.111 114.117 146.172 114.691C146.199 115.017 146.202 115.344 146.205 115.672L146.241 119.624C146.245 120.05 146.002 120.315 145.815 120.698C145.528 121.291 145.485 121.973 145.695 122.598C145.8 122.906 145.964 123.191 146.081 123.495C146.362 124.231 146.351 125.041 146.336 125.828L146.303 127.632C146.294 127.706 146.308 127.782 146.342 127.849C146.452 128.021 146.718 127.92 146.886 127.804L147.731 127.219C148.861 127.375 150.003 127.43 151.144 127.384C154.386 127.337 157.63 127.466 160.865 127.692C161.944 127.768 163.06 127.849 164.08 127.49C164.598 127.307 165.075 127.016 165.604 126.87C165.823 126.836 166.03 126.75 166.209 126.621C166.505 126.348 166.426 125.868 166.306 125.483C166.2 125.147 166.08 124.816 165.946 124.49C165.808 124.19 165.695 123.879 165.609 123.56C165.447 122.84 165.605 122.009 165.156 121.423C164.151 120.112 164.862 118.094 164.441 116.498C164.304 115.981 164.103 115.483 163.975 114.964C163.895 114.639 163.844 114.307 163.793 113.975C163.661 113.258 163.596 112.531 163.598 111.802C163.61 111.437 163.656 111.074 163.702 110.712L164.021 108.197C164.42 108.941 164.697 109.743 164.842 110.574C165.132 111.816 165.49 113.04 165.913 114.243C166.154 114.968 166.394 115.693 166.654 116.412C166.819 116.821 166.946 117.244 167.033 117.676C167.09 118.024 167.092 118.38 167.132 118.731C167.22 119.483 167.483 120.204 167.902 120.836C167.979 120.982 168.108 121.096 168.262 121.155C168.367 121.174 168.475 121.17 168.577 121.142C169.705 120.92 170.796 120.543 171.82 120.022C172.038 119.932 172.228 119.785 172.368 119.595C172.644 119.148 172.335 118.589 172.201 118.081C172.058 117.536 172.091 116.881 171.662 116.517C170.166 115.246 170.909 112.666 170.16 110.853C170.028 110.535 169.875 110.226 169.762 109.901C169.675 109.652 169.613 109.396 169.549 109.141C169.027 107.029 168.467 104.928 167.871 102.835C167.253 100.666 167.32 98.4064 166.541 96.289C166.395 95.8452 166.204 95.4174 165.971 95.0121C165.708 94.5886 165.356 94.2269 164.94 93.9516C163.811 93.2063 162.671 92.5716 161.345 92.3012C160.019 92.0307 158.583 92.0726 157.229 92.0785Z" fill="#D0CDE1"/>
<path d="M147.26 86.9341C146.686 86.6253 146.838 85.7871 146.74 85.1434C146.539 83.819 145.04 83.0333 144.688 81.7408C145.092 81.7904 145.503 81.7324 145.877 81.5727C145.95 81.1435 145.864 80.7027 145.638 80.3311C146.871 79.8311 147.868 78.8499 149.12 78.3992C150.695 77.8325 152.448 78.1803 154.037 78.7072C154.829 78.9701 155.654 79.3114 156.133 79.9941C156.659 80.7441 156.651 81.7311 156.623 82.6463C156.578 84.0817 156.522 85.5685 155.882 86.8545C155.066 88.4918 152.759 90.0084 150.852 89.5648C150.059 89.3804 149.826 88.8833 149.492 88.1955C149.284 87.7673 149.206 87.2703 148.737 87.0476C148.279 86.83 147.725 87.1839 147.26 86.9341Z" fill="#2F2E41"/>
<g opacity="0.1">
<path opacity="0.1" d="M164.581 117.506C164.586 117.619 164.589 117.733 164.59 117.848C164.585 117.735 164.582 117.621 164.581 117.506Z" fill="black"/>
<path opacity="0.1" d="M146.081 121.79C146.362 122.525 146.351 123.335 146.336 124.122C146.333 124.328 146.329 124.533 146.325 124.739C146.307 124.314 146.225 123.895 146.081 123.495C145.964 123.191 145.8 122.906 145.695 122.598C145.514 122.059 145.521 121.475 145.713 120.94C145.819 121.23 145.97 121.501 146.081 121.79Z" fill="black"/>
</g>
<g opacity="0.1">
<path opacity="0.1" d="M145.877 80.9525L145.873 80.9541C145.834 80.7336 145.754 80.5223 145.638 80.3311C145.71 80.3017 145.781 80.2704 145.852 80.2379C145.908 80.472 145.917 80.715 145.877 80.9525Z" fill="black"/>
</g>
<path d="M11.2772 72.2601L10.2705 71.3535C6.69549 68.0769 4.3353 65.9502 4.3353 63.301C4.32644 62.7969 4.41898 62.2962 4.60742 61.8285C4.79587 61.3608 5.0764 60.9356 5.43241 60.578C5.78841 60.2205 6.21265 59.9378 6.68002 59.7469C7.14739 59.5559 7.64839 59.4605 8.15336 59.4663C8.74929 59.4695 9.3374 59.6021 9.87684 59.8549C10.4163 60.1078 10.8941 60.4748 11.2772 60.9305C11.6603 60.4748 12.1382 60.1078 12.6776 59.8549C13.2171 59.6021 13.8052 59.4695 14.4011 59.4663C14.9061 59.4605 15.4071 59.5559 15.8744 59.7469C16.3418 59.9378 16.7661 60.2205 17.1221 60.578C17.4781 60.9356 17.7586 61.3608 17.947 61.8285C18.1355 62.2962 18.228 62.7969 18.2192 63.301C18.2192 65.9502 15.8589 68.0769 12.2839 71.3535L11.2772 72.2601Z" fill="#FF6584"/>
<path d="M13.0626 69.9686L12.0559 69.062C8.48083 65.7854 6.12064 63.6587 6.12064 61.0095C6.11178 60.5054 6.20432 60.0047 6.39277 59.537C6.58121 59.0693 6.86174 58.6441 7.21775 58.2865C7.57375 57.929 7.99799 57.6463 8.46536 57.4554C8.93273 57.2644 9.43373 57.169 9.9387 57.1748C10.5346 57.178 11.1227 57.3106 11.6622 57.5634C12.2016 57.8163 12.6795 58.1833 13.0626 58.639C13.4457 58.1833 13.9235 57.8163 14.463 57.5634C15.0024 57.3106 15.5905 57.178 16.1864 57.1748C16.6914 57.169 17.1924 57.2644 17.6598 57.4554C18.1272 57.6463 18.5514 57.929 18.9074 58.2865C19.2634 58.6441 19.5439 59.0693 19.7324 59.537C19.9208 60.0047 20.0134 60.5054 20.0045 61.0094C20.0045 63.6587 17.6443 65.7854 14.0693 69.062L13.0626 69.9686Z" stroke="#3F3D56" stroke-width="2" stroke-miterlimit="10"/>
</g>
<defs>
<clipPath id="clip0">
<rect width="250" height="179" fill="white"/>
</clipPath>
</defs>
</svg>
