<svg width="375" height="176" viewBox="0 0 375 176" fill="none" xmlns="http://www.w3.org/2000/svg">
<rect x="192" y="55" width="139" height="49" fill="#ED254E" fill-opacity="0.66"/>
<path d="M58.6568 97.576C56.0008 97.576 53.4248 97.224 50.9288 96.52C48.4648 95.784 46.4808 94.84 44.9768 93.688L47.6168 87.832C49.0568 88.888 50.7688 89.736 52.7528 90.376C54.7368 91.016 56.7208 91.336 58.7048 91.336C60.9128 91.336 62.5448 91.016 63.6008 90.376C64.6568 89.704 65.1848 88.824 65.1848 87.736C65.1848 86.936 64.8648 86.28 64.2248 85.768C63.6168 85.224 62.8168 84.792 61.8248 84.472C60.8648 84.152 59.5528 83.8 57.8888 83.416C55.3288 82.808 53.2328 82.2 51.6008 81.592C49.9688 80.984 48.5608 80.008 47.3768 78.664C46.2248 77.32 45.6488 75.528 45.6488 73.288C45.6488 71.336 46.1768 69.576 47.2328 68.008C48.2888 66.408 49.8728 65.144 51.9848 64.216C54.1288 63.288 56.7368 62.824 59.8088 62.824C61.9528 62.824 64.0488 63.08 66.0968 63.592C68.1448 64.104 69.9368 64.84 71.4728 65.8L69.0728 71.704C65.9688 69.944 62.8648 69.064 59.7608 69.064C57.5848 69.064 55.9688 69.416 54.9128 70.12C53.8888 70.824 53.3768 71.752 53.3768 72.904C53.3768 74.056 53.9688 74.92 55.1528 75.496C56.3688 76.04 58.2088 76.584 60.6728 77.128C63.2328 77.736 65.3288 78.344 66.9608 78.952C68.5928 79.56 69.9848 80.52 71.1368 81.832C72.3208 83.144 72.9128 84.92 72.9128 87.16C72.9128 89.08 72.3688 90.84 71.2808 92.44C70.2248 94.008 68.6248 95.256 66.4808 96.184C64.3368 97.112 61.7288 97.576 58.6568 97.576ZM89.9862 97.384C87.2662 97.384 84.8182 96.824 82.6422 95.704C80.4982 94.552 78.8182 92.968 77.6022 90.952C76.3862 88.936 75.7782 86.648 75.7782 84.088C75.7782 81.528 76.3862 79.24 77.6022 77.224C78.8182 75.208 80.4982 73.64 82.6422 72.52C84.8182 71.368 87.2662 70.792 89.9862 70.792C92.7062 70.792 95.1382 71.368 97.2822 72.52C99.4262 73.64 101.106 75.208 102.322 77.224C103.538 79.24 104.146 81.528 104.146 84.088C104.146 86.648 103.538 88.936 102.322 90.952C101.106 92.968 99.4262 94.552 97.2822 95.704C95.1382 96.824 92.7062 97.384 89.9862 97.384ZM89.9862 91.24C91.9062 91.24 93.4742 90.6 94.6902 89.32C95.9382 88.008 96.5622 86.264 96.5622 84.088C96.5622 81.912 95.9382 80.184 94.6902 78.904C93.4742 77.592 91.9062 76.936 89.9862 76.936C88.0662 76.936 86.4822 77.592 85.2342 78.904C83.9862 80.184 83.3622 81.912 83.3622 84.088C83.3622 86.264 83.9862 88.008 85.2342 89.32C86.4822 90.6 88.0662 91.24 89.9862 91.24ZM121.631 97.384C118.879 97.384 116.399 96.824 114.191 95.704C112.015 94.552 110.303 92.968 109.055 90.952C107.839 88.936 107.231 86.648 107.231 84.088C107.231 81.528 107.839 79.24 109.055 77.224C110.303 75.208 112.015 73.64 114.191 72.52C116.399 71.368 118.879 70.792 121.631 70.792C124.351 70.792 126.719 71.368 128.735 72.52C130.783 73.64 132.271 75.256 133.199 77.368L127.391 80.488C126.047 78.12 124.111 76.936 121.583 76.936C119.631 76.936 118.015 77.576 116.735 78.856C115.455 80.136 114.815 81.88 114.815 84.088C114.815 86.296 115.455 88.04 116.735 89.32C118.015 90.6 119.631 91.24 121.583 91.24C124.143 91.24 126.079 90.056 127.391 87.688L133.199 90.856C132.271 92.904 130.783 94.504 128.735 95.656C126.719 96.808 124.351 97.384 121.631 97.384ZM137.511 71.176H144.999V97H137.511V71.176ZM141.255 67.576C139.879 67.576 138.759 67.176 137.895 66.376C137.031 65.576 136.599 64.584 136.599 63.4C136.599 62.216 137.031 61.224 137.895 60.424C138.759 59.624 139.879 59.224 141.255 59.224C142.631 59.224 143.751 59.608 144.615 60.376C145.479 61.144 145.911 62.104 145.911 63.256C145.911 64.504 145.479 65.544 144.615 66.376C143.751 67.176 142.631 67.576 141.255 67.576ZM162.364 70.792C166.364 70.792 169.436 71.752 171.58 73.672C173.724 75.56 174.796 78.424 174.796 82.264V97H167.788V93.784C166.38 96.184 163.756 97.384 159.916 97.384C157.932 97.384 156.204 97.048 154.732 96.376C153.292 95.704 152.188 94.776 151.42 93.592C150.652 92.408 150.268 91.064 150.268 89.56C150.268 87.16 151.164 85.272 152.956 83.896C154.78 82.52 157.58 81.832 161.356 81.832H167.308C167.308 80.2 166.812 78.952 165.82 78.088C164.828 77.192 163.34 76.744 161.356 76.744C159.98 76.744 158.62 76.968 157.276 77.416C155.964 77.832 154.844 78.408 153.916 79.144L151.228 73.912C152.636 72.92 154.316 72.152 156.268 71.608C158.252 71.064 160.284 70.792 162.364 70.792ZM161.788 92.344C163.068 92.344 164.204 92.056 165.196 91.48C166.188 90.872 166.892 89.992 167.308 88.84V86.2H162.172C159.1 86.2 157.564 87.208 157.564 89.224C157.564 90.184 157.932 90.952 158.668 91.528C159.436 92.072 160.476 92.344 161.788 92.344ZM181.573 61.384H189.061V97H181.573V61.384Z" fill="black"/>
<path d="M211.083 63.4C214.059 63.4 216.635 63.896 218.811 64.888C221.019 65.88 222.715 67.288 223.899 69.112C225.083 70.936 225.675 73.096 225.675 75.592C225.675 78.056 225.083 80.216 223.899 82.072C222.715 83.896 221.019 85.304 218.811 86.296C216.635 87.256 214.059 87.736 211.083 87.736H204.315V97H196.539V63.4H211.083ZM210.651 81.4C212.987 81.4 214.763 80.904 215.979 79.912C217.195 78.888 217.803 77.448 217.803 75.592C217.803 73.704 217.195 72.264 215.979 71.272C214.763 70.248 212.987 69.736 210.651 69.736H204.315V81.4H210.651ZM231.167 61.384H238.655V97H231.167V61.384ZM256.02 70.792C260.02 70.792 263.092 71.752 265.236 73.672C267.38 75.56 268.452 78.424 268.452 82.264V97H261.444V93.784C260.036 96.184 257.412 97.384 253.572 97.384C251.588 97.384 249.86 97.048 248.388 96.376C246.948 95.704 245.844 94.776 245.076 93.592C244.308 92.408 243.924 91.064 243.924 89.56C243.924 87.16 244.82 85.272 246.612 83.896C248.436 82.52 251.236 81.832 255.012 81.832H260.964C260.964 80.2 260.468 78.952 259.476 78.088C258.484 77.192 256.996 76.744 255.012 76.744C253.636 76.744 252.276 76.968 250.932 77.416C249.62 77.832 248.5 78.408 247.572 79.144L244.884 73.912C246.292 72.92 247.972 72.152 249.924 71.608C251.908 71.064 253.94 70.792 256.02 70.792ZM255.444 92.344C256.724 92.344 257.86 92.056 258.852 91.48C259.844 90.872 260.548 89.992 260.964 88.84V86.2H255.828C252.756 86.2 251.22 87.208 251.22 89.224C251.22 90.184 251.588 90.952 252.324 91.528C253.092 92.072 254.132 92.344 255.444 92.344ZM287.991 97.384C285.239 97.384 282.759 96.824 280.551 95.704C278.375 94.552 276.663 92.968 275.415 90.952C274.199 88.936 273.591 86.648 273.591 84.088C273.591 81.528 274.199 79.24 275.415 77.224C276.663 75.208 278.375 73.64 280.551 72.52C282.759 71.368 285.239 70.792 287.991 70.792C290.711 70.792 293.079 71.368 295.095 72.52C297.143 73.64 298.631 75.256 299.559 77.368L293.751 80.488C292.407 78.12 290.471 76.936 287.943 76.936C285.991 76.936 284.375 77.576 283.095 78.856C281.815 80.136 281.175 81.88 281.175 84.088C281.175 86.296 281.815 88.04 283.095 89.32C284.375 90.6 285.991 91.24 287.943 91.24C290.503 91.24 292.439 90.056 293.751 87.688L299.559 90.856C298.631 92.904 297.143 94.504 295.095 95.656C293.079 96.808 290.711 97.384 287.991 97.384ZM328.838 84.184C328.838 84.28 328.79 84.952 328.694 86.2H309.158C309.51 87.8 310.342 89.064 311.654 89.992C312.966 90.92 314.598 91.384 316.55 91.384C317.894 91.384 319.078 91.192 320.102 90.808C321.158 90.392 322.134 89.752 323.03 88.888L327.014 93.208C324.582 95.992 321.03 97.384 316.358 97.384C313.446 97.384 310.87 96.824 308.63 95.704C306.39 94.552 304.662 92.968 303.446 90.952C302.23 88.936 301.622 86.648 301.622 84.088C301.622 81.56 302.214 79.288 303.398 77.272C304.614 75.224 306.262 73.64 308.342 72.52C310.454 71.368 312.806 70.792 315.398 70.792C317.926 70.792 320.214 71.336 322.262 72.424C324.31 73.512 325.91 75.08 327.062 77.128C328.246 79.144 328.838 81.496 328.838 84.184ZM315.446 76.456C313.75 76.456 312.326 76.936 311.174 77.896C310.022 78.856 309.318 80.168 309.062 81.832H321.782C321.526 80.2 320.822 78.904 319.67 77.944C318.518 76.952 317.11 76.456 315.446 76.456Z" fill="#F4FFFD"/>
</svg>
