<svg width="478" height="335" viewBox="0 0 478 335" fill="none" xmlns="http://www.w3.org/2000/svg">
<rect x="264" y="71" width="139" height="49" fill="#ED254E" fill-opacity="0.66"/>
<path d="M130.657 113.576C128.001 113.576 125.425 113.224 122.929 112.52C120.465 111.784 118.481 110.84 116.977 109.688L119.617 103.832C121.057 104.888 122.769 105.736 124.753 106.376C126.737 107.016 128.721 107.336 130.705 107.336C132.913 107.336 134.545 107.016 135.601 106.376C136.657 105.704 137.185 104.824 137.185 103.736C137.185 102.936 136.865 102.28 136.225 101.768C135.617 101.224 134.817 100.792 133.825 100.472C132.865 100.152 131.553 99.8 129.889 99.416C127.329 98.808 125.233 98.2 123.601 97.592C121.969 96.984 120.561 96.008 119.377 94.664C118.225 93.32 117.649 91.528 117.649 89.288C117.649 87.336 118.177 85.576 119.233 84.008C120.289 82.408 121.873 81.144 123.985 80.216C126.129 79.288 128.737 78.824 131.809 78.824C133.953 78.824 136.049 79.08 138.097 79.592C140.145 80.104 141.937 80.84 143.473 81.8L141.073 87.704C137.969 85.944 134.865 85.064 131.761 85.064C129.585 85.064 127.969 85.416 126.913 86.12C125.889 86.824 125.377 87.752 125.377 88.904C125.377 90.056 125.969 90.92 127.153 91.496C128.369 92.04 130.209 92.584 132.673 93.128C135.233 93.736 137.329 94.344 138.961 94.952C140.593 95.56 141.985 96.52 143.137 97.832C144.321 99.144 144.913 100.92 144.913 103.16C144.913 105.08 144.369 106.84 143.281 108.44C142.225 110.008 140.625 111.256 138.481 112.184C136.337 113.112 133.729 113.576 130.657 113.576ZM161.986 113.384C159.266 113.384 156.818 112.824 154.642 111.704C152.498 110.552 150.818 108.968 149.602 106.952C148.386 104.936 147.778 102.648 147.778 100.088C147.778 97.528 148.386 95.24 149.602 93.224C150.818 91.208 152.498 89.64 154.642 88.52C156.818 87.368 159.266 86.792 161.986 86.792C164.706 86.792 167.138 87.368 169.282 88.52C171.426 89.64 173.106 91.208 174.322 93.224C175.538 95.24 176.146 97.528 176.146 100.088C176.146 102.648 175.538 104.936 174.322 106.952C173.106 108.968 171.426 110.552 169.282 111.704C167.138 112.824 164.706 113.384 161.986 113.384ZM161.986 107.24C163.906 107.24 165.474 106.6 166.69 105.32C167.938 104.008 168.562 102.264 168.562 100.088C168.562 97.912 167.938 96.184 166.69 94.904C165.474 93.592 163.906 92.936 161.986 92.936C160.066 92.936 158.482 93.592 157.234 94.904C155.986 96.184 155.362 97.912 155.362 100.088C155.362 102.264 155.986 104.008 157.234 105.32C158.482 106.6 160.066 107.24 161.986 107.24ZM193.631 113.384C190.879 113.384 188.399 112.824 186.191 111.704C184.015 110.552 182.303 108.968 181.055 106.952C179.839 104.936 179.231 102.648 179.231 100.088C179.231 97.528 179.839 95.24 181.055 93.224C182.303 91.208 184.015 89.64 186.191 88.52C188.399 87.368 190.879 86.792 193.631 86.792C196.351 86.792 198.719 87.368 200.735 88.52C202.783 89.64 204.271 91.256 205.199 93.368L199.391 96.488C198.047 94.12 196.111 92.936 193.583 92.936C191.631 92.936 190.015 93.576 188.735 94.856C187.455 96.136 186.815 97.88 186.815 100.088C186.815 102.296 187.455 104.04 188.735 105.32C190.015 106.6 191.631 107.24 193.583 107.24C196.143 107.24 198.079 106.056 199.391 103.688L205.199 106.856C204.271 108.904 202.783 110.504 200.735 111.656C198.719 112.808 196.351 113.384 193.631 113.384ZM209.511 87.176H216.999V113H209.511V87.176ZM213.255 83.576C211.879 83.576 210.759 83.176 209.895 82.376C209.031 81.576 208.599 80.584 208.599 79.4C208.599 78.216 209.031 77.224 209.895 76.424C210.759 75.624 211.879 75.224 213.255 75.224C214.631 75.224 215.751 75.608 216.615 76.376C217.479 77.144 217.911 78.104 217.911 79.256C217.911 80.504 217.479 81.544 216.615 82.376C215.751 83.176 214.631 83.576 213.255 83.576ZM234.364 86.792C238.364 86.792 241.436 87.752 243.58 89.672C245.724 91.56 246.796 94.424 246.796 98.264V113H239.788V109.784C238.38 112.184 235.756 113.384 231.916 113.384C229.932 113.384 228.204 113.048 226.732 112.376C225.292 111.704 224.188 110.776 223.42 109.592C222.652 108.408 222.268 107.064 222.268 105.56C222.268 103.16 223.164 101.272 224.956 99.896C226.78 98.52 229.58 97.832 233.356 97.832H239.308C239.308 96.2 238.812 94.952 237.82 94.088C236.828 93.192 235.34 92.744 233.356 92.744C231.98 92.744 230.62 92.968 229.276 93.416C227.964 93.832 226.844 94.408 225.916 95.144L223.228 89.912C224.636 88.92 226.316 88.152 228.268 87.608C230.252 87.064 232.284 86.792 234.364 86.792ZM233.788 108.344C235.068 108.344 236.204 108.056 237.196 107.48C238.188 106.872 238.892 105.992 239.308 104.84V102.2H234.172C231.1 102.2 229.564 103.208 229.564 105.224C229.564 106.184 229.932 106.952 230.668 107.528C231.436 108.072 232.476 108.344 233.788 108.344ZM253.573 77.384H261.061V113H253.573V77.384Z" fill="black"/>
<path d="M283.083 79.4C286.059 79.4 288.635 79.896 290.811 80.888C293.019 81.88 294.715 83.288 295.899 85.112C297.083 86.936 297.675 89.096 297.675 91.592C297.675 94.056 297.083 96.216 295.899 98.072C294.715 99.896 293.019 101.304 290.811 102.296C288.635 103.256 286.059 103.736 283.083 103.736H276.315V113H268.539V79.4H283.083ZM282.651 97.4C284.987 97.4 286.763 96.904 287.979 95.912C289.195 94.888 289.803 93.448 289.803 91.592C289.803 89.704 289.195 88.264 287.979 87.272C286.763 86.248 284.987 85.736 282.651 85.736H276.315V97.4H282.651ZM303.167 77.384H310.655V113H303.167V77.384ZM328.02 86.792C332.02 86.792 335.092 87.752 337.236 89.672C339.38 91.56 340.452 94.424 340.452 98.264V113H333.444V109.784C332.036 112.184 329.412 113.384 325.572 113.384C323.588 113.384 321.86 113.048 320.388 112.376C318.948 111.704 317.844 110.776 317.076 109.592C316.308 108.408 315.924 107.064 315.924 105.56C315.924 103.16 316.82 101.272 318.612 99.896C320.436 98.52 323.236 97.832 327.012 97.832H332.964C332.964 96.2 332.468 94.952 331.476 94.088C330.484 93.192 328.996 92.744 327.012 92.744C325.636 92.744 324.276 92.968 322.932 93.416C321.62 93.832 320.5 94.408 319.572 95.144L316.884 89.912C318.292 88.92 319.972 88.152 321.924 87.608C323.908 87.064 325.94 86.792 328.02 86.792ZM327.444 108.344C328.724 108.344 329.86 108.056 330.852 107.48C331.844 106.872 332.548 105.992 332.964 104.84V102.2H327.828C324.756 102.2 323.22 103.208 323.22 105.224C323.22 106.184 323.588 106.952 324.324 107.528C325.092 108.072 326.132 108.344 327.444 108.344ZM359.991 113.384C357.239 113.384 354.759 112.824 352.551 111.704C350.375 110.552 348.663 108.968 347.415 106.952C346.199 104.936 345.591 102.648 345.591 100.088C345.591 97.528 346.199 95.24 347.415 93.224C348.663 91.208 350.375 89.64 352.551 88.52C354.759 87.368 357.239 86.792 359.991 86.792C362.711 86.792 365.079 87.368 367.095 88.52C369.143 89.64 370.631 91.256 371.559 93.368L365.751 96.488C364.407 94.12 362.471 92.936 359.943 92.936C357.991 92.936 356.375 93.576 355.095 94.856C353.815 96.136 353.175 97.88 353.175 100.088C353.175 102.296 353.815 104.04 355.095 105.32C356.375 106.6 357.991 107.24 359.943 107.24C362.503 107.24 364.439 106.056 365.751 103.688L371.559 106.856C370.631 108.904 369.143 110.504 367.095 111.656C365.079 112.808 362.711 113.384 359.991 113.384ZM400.838 100.184C400.838 100.28 400.79 100.952 400.694 102.2H381.158C381.51 103.8 382.342 105.064 383.654 105.992C384.966 106.92 386.598 107.384 388.55 107.384C389.894 107.384 391.078 107.192 392.102 106.808C393.158 106.392 394.134 105.752 395.03 104.888L399.014 109.208C396.582 111.992 393.03 113.384 388.358 113.384C385.446 113.384 382.87 112.824 380.63 111.704C378.39 110.552 376.662 108.968 375.446 106.952C374.23 104.936 373.622 102.648 373.622 100.088C373.622 97.56 374.214 95.288 375.398 93.272C376.614 91.224 378.262 89.64 380.342 88.52C382.454 87.368 384.806 86.792 387.398 86.792C389.926 86.792 392.214 87.336 394.262 88.424C396.31 89.512 397.91 91.08 399.062 93.128C400.246 95.144 400.838 97.496 400.838 100.184ZM387.446 92.456C385.75 92.456 384.326 92.936 383.174 93.896C382.022 94.856 381.318 96.168 381.062 97.832H393.782C393.526 96.2 392.822 94.904 391.67 93.944C390.518 92.952 389.11 92.456 387.446 92.456Z" fill="#F4FFFD"/>
<g clip-path="url(#clip0)">
<path d="M104.719 209.446L108.082 219.795L112.647 215.944L110.245 207.761L104.719 209.446Z" fill="#FFB9B9"/>
<path d="M61.4734 165.401L62.6746 181.527L91.7451 182.249L104.478 211.372L111.446 208.483C111.446 208.483 103.517 181.046 99.9136 172.381C96.3098 163.716 82.6155 169.974 82.6155 169.974L81.4143 167.567L61.4734 165.401Z" fill="#2F2E41"/>
<path d="M106.641 217.87C106.641 217.87 107.121 225.572 107.842 226.053C108.563 226.534 114.088 225.572 114.088 225.572C114.088 225.572 115.749 225.941 122.497 224.128C130.084 222.089 121.536 219.073 121.536 219.073C121.536 219.073 116.01 215.463 113.608 213.778C111.205 212.094 109.524 215.704 109.524 215.704C110.004 217.148 106.641 217.87 106.641 217.87Z" fill="#2F2E41"/>
<path d="M298.86 249.055L299.625 275.871L307.783 307.285C307.783 307.285 305.998 312.648 307.273 313.925C308.548 315.202 314.411 317.501 314.411 317.501L309.568 250.587L298.86 249.055Z" fill="#2F2E41"/>
<path d="M316.572 313.794C316.572 313.794 319.481 320.206 315.408 320.789C311.335 321.372 292.522 322.926 293.686 319.623C294.849 316.32 309.008 313.211 309.008 313.211L316.572 313.794Z" fill="#2F2E41"/>
<path d="M327.413 225.303C327.413 225.303 324.354 241.904 322.314 244.713C320.275 247.523 323.334 267.954 323.334 267.954C323.334 267.954 327.923 297.325 325.884 301.922C323.844 306.519 324.354 304.986 324.609 307.54C324.864 310.094 325.374 312.138 324.609 314.436C323.844 316.735 323.844 316.479 323.589 317.756C323.334 319.033 323.589 325.929 323.589 325.929C323.589 325.929 312.627 329.76 310.842 324.141C310.842 324.141 313.392 320.566 312.627 317.756C311.829 314.929 311.401 312.01 311.352 309.073V303.709L299.625 259.782L296.821 243.947C296.821 243.947 297.586 227.857 300.39 226.325C303.194 224.792 327.413 225.303 327.413 225.303Z" fill="#2F2E41"/>
<path d="M322.824 324.652C322.824 324.652 326.648 333.08 321.295 333.846C315.941 334.612 291.212 336.655 292.742 332.314C294.271 327.972 312.882 323.886 312.882 323.886L322.824 324.652Z" fill="#2F2E41"/>
<path d="M317.978 151.76C323.61 151.76 328.175 147.186 328.175 141.544C328.175 135.902 323.61 131.329 317.978 131.329C312.346 131.329 307.78 135.902 307.78 141.544C307.78 147.186 312.346 151.76 317.978 151.76Z" fill="#FFB9B9"/>
<path d="M325.144 146.059L324.954 159.105L312.452 159.147C312.452 159.147 315.625 148.934 314.203 146.799C312.782 144.663 325.144 146.059 325.144 146.059Z" fill="#FFB9B9"/>
<path d="M306.508 166.307C306.508 166.307 315.431 154.814 322.315 159.667C329.198 164.519 331.747 176.012 331.747 176.012L330.218 208.192C330.218 208.192 326.394 212.789 328.688 215.854C330.982 218.918 332.257 218.152 330.473 220.451C328.688 222.749 326.649 224.537 327.413 225.303C328.178 226.069 326.648 226.58 326.648 226.58L299.625 227.346C299.625 227.346 300.39 226.325 298.095 223.26C295.801 220.195 298.605 216.109 298.095 214.577C297.586 213.044 297.076 214.832 296.821 211.257C296.566 207.681 306.508 166.307 306.508 166.307Z" fill="#3F3D56"/>
<path d="M309.058 232.199C309.058 232.199 308.548 238.584 304.724 239.605C303.29 239.988 302.214 239.258 301.43 238.196C300.698 237.177 300.287 235.963 300.252 234.708C300.216 233.454 300.557 232.217 301.23 231.159L302.174 229.645L309.058 232.199Z" fill="#FFB9B9"/>
<path d="M332.639 153.41C332.639 153.41 332.894 158.517 332.639 159.284C332.385 160.05 332.13 160.816 332.639 161.582C333.149 162.348 332.894 164.902 332.385 165.158C331.875 165.413 333.404 167.712 332.894 169.244C332.385 170.776 331.875 171.287 331.62 171.798C331.365 172.309 330.954 173.224 330.954 173.224C330.954 173.224 323.462 157.24 317.343 161.071C311.225 164.902 306.381 166.179 306.381 166.179C306.381 166.179 309.695 148.302 332.639 153.41Z" fill="#3F3D56"/>
<path d="M321.55 165.285C321.55 165.285 329.708 166.052 329.198 176.778C328.688 187.505 329.963 204.361 329.963 204.361C329.963 204.361 315.941 225.814 313.647 227.346C311.352 228.879 311.097 228.623 311.352 229.9C311.607 231.177 311.862 232.199 310.842 233.22C310.24 233.828 309.553 234.344 308.803 234.753C308.803 234.753 300.645 231.943 301.41 229.389C302.174 226.836 305.743 222.749 305.743 222.749C305.743 222.749 311.862 212.789 312.117 211.256C312.372 209.724 312.372 209.979 313.137 209.213C313.902 208.447 315.941 205.382 315.941 203.85V198.998L313.804 173.066C313.707 172.009 313.834 170.945 314.177 169.941C314.52 168.938 315.071 168.018 315.794 167.244C317.007 165.972 318.841 164.96 321.55 165.285Z" fill="#3F3D56"/>
<path d="M311.401 133.666C310.737 133.851 310.037 133.866 309.365 133.712C308.693 133.558 308.069 133.239 307.551 132.783C306.555 131.834 306.22 130.191 306.929 129.011C307.541 127.992 308.732 127.494 309.865 127.14C312.365 126.359 314.968 125.961 317.586 125.96C318.834 125.959 320.138 126.066 321.206 126.713C321.734 127.033 322.182 127.473 322.705 127.803C323.665 128.409 324.819 128.611 325.874 129.032C326.953 129.471 327.925 130.138 328.724 130.986C329.523 131.834 330.132 132.844 330.508 133.948C330.75 134.697 330.901 135.472 330.958 136.257C331.13 138.407 330.751 140.566 329.856 142.528C328.434 145.635 325.726 148.248 325.344 151.645C323.886 150.419 323.459 148.363 322.33 146.828C321.49 145.694 320.29 144.878 318.927 144.515C318.546 144.464 318.188 144.304 317.897 144.053C317.701 143.781 317.588 143.458 317.574 143.123L316.875 138.076C316.732 137.049 316.54 135.926 315.753 135.253C315.26 134.885 314.688 134.636 314.083 134.526C312.651 134.17 311.192 133.931 309.722 133.814" fill="#2F2E41"/>
<path opacity="0.1" d="M328.723 208.009L314.411 226.614C314.411 226.614 327.589 215.579 328.723 208.009Z" fill="black"/>
<path opacity="0.1" d="M314.986 187.41L315.121 204.981L306.809 217.471L313.61 203.467L314.986 187.41Z" fill="black"/>
<path d="M227.824 179.071H141.141V177.282H101.836V179.071H14.7964C13.2413 179.071 11.7499 179.69 10.6503 180.792C9.55074 181.893 8.93299 183.387 8.93298 184.945V303.853C8.93299 305.411 9.55074 306.905 10.6503 308.007C11.7499 309.108 13.2413 309.727 14.7964 309.727H227.824C228.594 309.727 229.356 309.575 230.068 309.28C230.779 308.985 231.425 308.552 231.97 308.007C232.514 307.461 232.946 306.814 233.241 306.101C233.535 305.388 233.687 304.624 233.687 303.853V184.945C233.687 184.174 233.535 183.41 233.241 182.697C232.946 181.985 232.514 181.337 231.97 180.792C231.425 180.246 230.779 179.814 230.068 179.519C229.356 179.223 228.594 179.071 227.824 179.071V179.071Z" fill="#3F3D56"/>
<path opacity="0.1" d="M225.826 189.452H16.794V307.579H225.826V189.452Z" fill="black"/>
<path d="M121.131 186.231C122.315 186.231 123.275 185.269 123.275 184.083C123.275 182.897 122.315 181.935 121.131 181.935C119.947 181.935 118.987 182.897 118.987 184.083C118.987 185.269 119.947 186.231 121.131 186.231Z" fill="#F9DC5C"/>
<path d="M224.857 189.393H17.145V307.476H224.857V189.393Z" fill="#E6E6E6"/>
<path d="M218.917 197.462H23.0845V300.035H218.917V197.462Z" fill="white"/>
<path d="M91.1984 208.105H40.8785V289.392H91.1984V208.105Z" fill="#E6E6E6"/>
<path d="M141.818 208.105H99.8846V230.48H141.818V208.105Z" fill="#F9DC5C"/>
<path d="M141.818 236.711H99.8846V260.786H141.818V236.711Z" fill="#E6E6E6"/>
<path d="M141.818 267.017H99.8846V289.392H141.818V267.017Z" fill="#E6E6E6"/>
<path d="M201.123 208.105H150.803V243.529H201.123V208.105Z" fill="#E6E6E6"/>
<path d="M201.123 253.967H150.803V289.392H201.123V253.967Z" fill="#F9DC5C"/>
<path d="M239.556 305.431H219.156V303.959C219.156 303.921 219.149 303.883 219.134 303.847C219.119 303.812 219.098 303.78 219.071 303.753C219.044 303.725 219.011 303.704 218.976 303.689C218.941 303.675 218.903 303.667 218.865 303.667H211.87C211.832 303.667 211.794 303.675 211.759 303.689C211.723 303.704 211.691 303.725 211.664 303.753C211.637 303.78 211.616 303.812 211.601 303.847C211.586 303.883 211.579 303.921 211.579 303.959V305.431H207.207V303.959C207.207 303.921 207.2 303.883 207.185 303.847C207.171 303.812 207.149 303.78 207.122 303.753C207.095 303.725 207.063 303.704 207.027 303.689C206.992 303.675 206.954 303.667 206.916 303.667H199.922C199.883 303.667 199.845 303.675 199.81 303.689C199.775 303.704 199.743 303.725 199.716 303.753C199.688 303.78 199.667 303.812 199.652 303.847C199.638 303.883 199.63 303.921 199.63 303.959V303.959V305.431H195.259V303.959C195.259 303.921 195.251 303.883 195.237 303.847C195.222 303.812 195.2 303.78 195.173 303.753C195.146 303.725 195.114 303.704 195.079 303.689C195.043 303.675 195.006 303.667 194.967 303.667H187.973C187.935 303.667 187.897 303.675 187.861 303.689C187.826 303.704 187.794 303.725 187.767 303.753C187.74 303.78 187.718 303.812 187.704 303.847C187.689 303.883 187.682 303.921 187.682 303.959V305.431H183.31V303.959C183.31 303.921 183.303 303.883 183.288 303.847C183.273 303.812 183.252 303.78 183.225 303.753C183.198 303.725 183.166 303.704 183.13 303.689C183.095 303.675 183.057 303.667 183.019 303.667H176.024C175.986 303.667 175.948 303.675 175.913 303.689C175.877 303.704 175.845 303.725 175.818 303.753C175.791 303.78 175.77 303.812 175.755 303.847C175.74 303.883 175.733 303.921 175.733 303.959V303.959V305.431H171.361V303.959C171.361 303.921 171.354 303.883 171.339 303.847C171.325 303.812 171.303 303.78 171.276 303.753C171.249 303.725 171.217 303.704 171.181 303.689C171.146 303.675 171.108 303.667 171.07 303.667H164.076C164.037 303.667 163.999 303.675 163.964 303.689C163.929 303.704 163.897 303.725 163.87 303.753C163.842 303.78 163.821 303.812 163.806 303.847C163.792 303.883 163.784 303.921 163.784 303.959V305.431H159.413V303.959C159.413 303.921 159.405 303.883 159.391 303.847C159.376 303.812 159.354 303.78 159.327 303.753C159.3 303.725 159.268 303.704 159.233 303.689C159.197 303.675 159.16 303.667 159.121 303.667H152.127C152.089 303.667 152.051 303.675 152.015 303.689C151.98 303.704 151.948 303.725 151.921 303.753C151.894 303.78 151.872 303.812 151.858 303.847C151.843 303.883 151.836 303.921 151.836 303.959V305.431H147.464V303.959C147.464 303.921 147.457 303.883 147.442 303.847C147.427 303.812 147.406 303.78 147.379 303.753C147.352 303.725 147.32 303.704 147.284 303.689C147.249 303.675 147.211 303.667 147.173 303.667H92.3836C92.3063 303.667 92.2322 303.698 92.1775 303.753C92.1229 303.807 92.0922 303.882 92.0922 303.959V303.959V305.431H87.7207V303.959C87.7207 303.921 87.7132 303.883 87.6985 303.847C87.6839 303.812 87.6624 303.78 87.6353 303.753C87.6083 303.725 87.5762 303.704 87.5408 303.689C87.5055 303.675 87.4676 303.667 87.4293 303.667H80.4349C80.3576 303.667 80.2835 303.698 80.2289 303.753C80.1742 303.807 80.1435 303.882 80.1435 303.959V305.431H75.772V303.959C75.772 303.921 75.7645 303.883 75.7499 303.847C75.7352 303.812 75.7138 303.78 75.6867 303.753C75.6596 303.725 75.6275 303.704 75.5921 303.689C75.5568 303.675 75.5189 303.667 75.4806 303.667H68.4863C68.409 303.667 68.3349 303.698 68.2802 303.753C68.2255 303.807 68.1948 303.882 68.1948 303.959V303.959V305.431H63.8234V303.959C63.8234 303.921 63.8158 303.883 63.8012 303.847C63.7865 303.812 63.7651 303.78 63.738 303.753C63.7109 303.725 63.6788 303.704 63.6435 303.689C63.6081 303.675 63.5702 303.667 63.5319 303.667H56.5376C56.4603 303.667 56.3862 303.698 56.3315 303.753C56.2769 303.807 56.2462 303.882 56.2462 303.959V303.959V305.431H51.8747V303.959C51.8747 303.921 51.8672 303.883 51.8525 303.847C51.8379 303.812 51.8164 303.78 51.7893 303.753C51.7623 303.725 51.7302 303.704 51.6948 303.689C51.6595 303.675 51.6215 303.667 51.5833 303.667H44.5889C44.5116 303.667 44.4375 303.698 44.3829 303.753C44.3282 303.807 44.2975 303.882 44.2975 303.959V303.959V305.431H39.926V303.959C39.926 303.921 39.9185 303.883 39.9039 303.847C39.8892 303.812 39.8677 303.78 39.8407 303.753C39.8136 303.725 39.7815 303.704 39.7462 303.689C39.7108 303.675 39.6729 303.667 39.6346 303.667H32.6403C32.563 303.667 32.4888 303.698 32.4342 303.753C32.3795 303.807 32.3488 303.882 32.3488 303.959V303.959V305.431H27.9774V303.959C27.9774 303.921 27.9698 303.883 27.9552 303.847C27.9405 303.812 27.9191 303.78 27.892 303.753C27.865 303.725 27.8328 303.704 27.7975 303.689C27.7621 303.675 27.7242 303.667 27.6859 303.667H20.6916C20.6143 303.667 20.5402 303.698 20.4855 303.753C20.4309 303.807 20.4002 303.882 20.4002 303.959V303.959V305.431H6.99434C5.13933 305.431 3.36029 306.17 2.0486 307.484C0.736903 308.798 0 310.58 0 312.438V315.607C3.00606e-06 317.465 0.736909 319.247 2.0486 320.561C3.3603 321.875 5.13933 322.614 6.99434 322.614H239.556C241.411 322.614 243.19 321.875 244.502 320.561C245.814 319.247 246.551 317.465 246.551 315.607V312.438C246.551 310.58 245.814 308.798 244.502 307.484C243.19 306.17 241.411 305.431 239.556 305.431V305.431Z" fill="#3F3D56"/>
<path d="M52.2677 100.732C50.9945 102.436 50.2238 104.463 50.0428 106.584C49.7835 109.166 49.029 113.295 46.8335 115.465C43.4884 118.772 42.3734 121.252 42.3734 121.252L43.4884 122.492C43.4884 120.012 44.9751 119.598 44.9751 119.598L44.6035 122.492C54.6386 131.998 76.9391 123.318 76.9391 123.318L76.1957 115.879C78.0541 116.705 78.7975 122.492 78.7975 122.492L81.7708 121.665C81.7708 121.665 76.5674 112.572 73.2223 104.305C69.8773 96.0387 64.6738 98.1054 64.6738 98.1054C58.5412 94.8217 54.4907 97.8668 52.2677 100.732Z" fill="#2F2E41"/>
<path d="M87.1803 104.99L90.7841 81.4031C90.7841 81.4031 86.94 72.0165 93.4268 71.0538C99.9136 70.0911 95.5891 82.3659 95.5891 82.3659L93.4268 104.99H87.1803Z" fill="#FFB9B9"/>
<path d="M84.2973 215.944C85.4986 217.87 85.7388 227.738 85.7388 227.738L94.1476 222.443L91.7451 213.778L84.2973 215.944Z" fill="#FFB9B9"/>
<path d="M72.525 164.198C72.525 164.198 61.9539 164.198 56.1879 167.567C54.3345 168.65 53.7967 170.604 53.9203 172.756C54.2429 178.379 58.827 182.819 64.4382 183.167L80.6936 184.174C78.291 190.914 83.8168 217.148 83.8168 217.148L92.4659 215.944C92.4659 215.944 91.2646 207.039 91.5049 206.558C91.7451 206.077 93.9074 187.303 92.4659 177.435C91.0244 167.567 71.3237 171.659 71.3237 171.659L72.525 164.198Z" fill="#2F2E41"/>
<path d="M85.2583 225.572C85.2583 225.572 84.5375 232.552 84.7778 233.514C85.018 234.477 94.8684 234.958 103.758 232.311C112.647 229.663 102.556 226.775 102.556 226.775C102.556 226.775 96.5501 222.684 94.8683 221.239C93.1866 219.795 90.7841 223.165 90.7841 223.165C90.3036 225.331 85.2583 225.572 85.2583 225.572Z" fill="#2F2E41"/>
<path d="M70.4913 114.561C71.2564 109.837 68.0543 105.387 63.3393 104.62C58.6242 103.853 54.1816 107.061 53.4165 111.785C52.6513 116.508 55.8534 120.959 60.5685 121.725C65.2835 122.492 69.7261 119.284 70.4913 114.561Z" fill="#FFB9B9"/>
<path d="M58.3501 119.672C61.4734 124.245 57.6294 126.892 57.6294 126.892L55.9476 139.408C55.9476 139.408 73.9665 141.092 77.0897 138.685C80.213 136.279 73.486 128.336 71.0835 127.614C68.6809 126.892 68.2004 117.024 68.2004 117.024L58.3501 119.672Z" fill="#FFB9B9"/>
<path d="M58.8203 125.61L49.3407 124.124L48.2596 134.353C48.2596 134.353 48.7401 157.218 48.2596 161.31C47.7791 165.401 56.4281 169.974 56.4281 169.974C56.4281 169.974 68.9212 169.011 71.3237 167.808C73.7262 166.605 81.4143 169.011 81.4143 169.011C82.2707 169.059 83.1281 168.936 83.9369 168.65C85.3784 168.169 80.213 133.872 80.213 133.872L75.6482 123.282L70.1225 125.448L68.4407 133.39L58.8203 125.61Z" fill="#F9DC5C"/>
<path d="M79.2522 133.631L88.8622 121.356L95.5892 104.749L86.2194 101.139L82.3752 114.858L75.6482 123.041L75.408 124.485L79.2522 133.631Z" fill="#F9DC5C"/>
<path d="M48.9701 152.316L72.7721 153.214C72.7721 153.214 81.6425 148.318 83.3368 154.664C85.0311 161.01 72.3652 158.106 72.3652 158.106L49.6823 158.533L48.9701 152.316Z" fill="#FFB9B9"/>
<path d="M51.0225 150.599L62.074 151.321L63.5155 158.782C63.5155 158.782 50.0615 158.542 44.7759 158.301C39.4904 158.06 44.7759 135.677 45.4967 128.938C46.2174 122.199 49.8212 124.124 49.8212 124.124L51.9835 125.809L51.0225 150.599Z" fill="#F9DC5C"/>
<path opacity="0.15" d="M52.9448 148.192L62.5548 152.043L51.9836 149.877L51.2628 136.158L52.9448 148.192Z" fill="black"/>
<path d="M71.0873 110.289L55.2192 110.667L53.3301 102.719H71.0873V110.289Z" fill="#2F2E41"/>
</g>
<defs>
<clipPath id="clip0">
<rect y="71" width="333" height="264" fill="white"/>
</clipPath>
</defs>
</svg>
